<svg width="18" height="17" viewBox="0 0 18 17" fill="none" xmlns="http://www.w3.org/2000/svg">
<mask id="mask0_959_45286" style="mask-type:luminance" maskUnits="userSpaceOnUse" x="0" y="0" width="18" height="17">
<path d="M9 6.83333C9.38302 6.83333 9.76229 6.75789 10.1162 6.61132C10.47 6.46474 10.7916 6.2499 11.0624 5.97906C11.3332 5.70822 11.5481 5.38669 11.6946 5.03283C11.8412 4.67896 11.9167 4.29969 11.9167 3.91667C11.9167 3.53364 11.8412 3.15437 11.6946 2.80051C11.5481 2.44664 11.3332 2.12511 11.0624 1.85427C10.7916 1.58343 10.47 1.36859 10.1162 1.22202C9.76229 1.07544 9.38302 1 9 1C8.22645 1 7.48459 1.30729 6.93761 1.85427C6.39062 2.40125 6.08333 3.14312 6.08333 3.91667C6.08333 4.69021 6.39062 5.43208 6.93761 5.97906C7.48459 6.52604 8.22645 6.83333 9 6.83333ZM1.5 15.5V16H16.5V15.5C16.5 13.6333 16.5 12.7 16.1367 11.9867C15.8171 11.3595 15.3072 10.8496 14.68 10.53C13.9667 10.1667 13.0333 10.1667 11.1667 10.1667H6.83333C4.96667 10.1667 4.03333 10.1667 3.32 10.53C2.69282 10.8496 2.18291 11.3595 1.86333 11.9867C1.5 12.7 1.5 13.6333 1.5 15.5Z" fill="#555555" stroke="white" stroke-width="2" stroke-linecap="round" stroke-linejoin="round"/>
</mask>
<g mask="url(#mask0_959_45286)">
<path d="M-1 -1.5H19V18.5H-1V-1.5Z" fill="#4679BD"/>
</g>
</svg>
