<svg width="18" height="18" viewBox="0 0 18 18" fill="none" xmlns="http://www.w3.org/2000/svg">
<path d="M7.75855 2.05489C7.91487 1.88031 8.10625 1.74065 8.32021 1.64503C8.53416 1.54942 8.76587 1.5 9.00021 1.5C9.23456 1.5 9.46627 1.54942 9.68022 1.64503C9.89417 1.74065 10.0856 1.88031 10.2419 2.05489L10.8252 2.70656C10.9919 2.89281 11.1984 3.03917 11.4294 3.13481C11.6603 3.23044 11.9098 3.27291 12.1594 3.25906L13.0344 3.21073C13.2684 3.19782 13.5025 3.23443 13.7215 3.31816C13.9404 3.40189 14.1392 3.53085 14.3049 3.69663C14.4706 3.86241 14.5995 4.06128 14.6831 4.28025C14.7667 4.49922 14.8032 4.73336 14.7902 4.96739L14.7419 5.84156C14.7282 6.091 14.7707 6.34034 14.8663 6.57113C14.962 6.80192 15.1082 7.00826 15.2944 7.17489L15.946 7.75823C16.1208 7.91455 16.2605 8.10599 16.3562 8.32002C16.4519 8.53405 16.5014 8.76586 16.5014 9.00031C16.5014 9.23476 16.4519 9.46657 16.3562 9.6806C16.2605 9.89463 16.1208 10.0861 15.946 10.2424L15.2944 10.8257C15.1081 10.9924 14.9618 11.1989 14.8661 11.4299C14.7705 11.6608 14.728 11.9103 14.7419 12.1599L14.7902 13.0349C14.8031 13.2689 14.7665 13.5031 14.6828 13.722C14.5991 13.9409 14.4701 14.1397 14.3043 14.3054C14.1385 14.4711 13.9397 14.6 13.7207 14.6836C13.5017 14.7672 13.2676 14.8037 13.0335 14.7907L12.1594 14.7424C11.9099 14.7287 11.6606 14.7712 11.4298 14.8668C11.199 14.9625 10.9927 15.1088 10.826 15.2949L10.2427 15.9466C10.0864 16.1213 9.89495 16.2611 9.68092 16.3568C9.46689 16.4525 9.23508 16.5019 9.00063 16.5019C8.76618 16.5019 8.53437 16.4525 8.32034 16.3568C8.10631 16.2611 7.91488 16.1213 7.75855 15.9466L7.17521 15.2949C7.0085 15.1086 6.80202 14.9623 6.57107 14.8666C6.34013 14.771 6.09063 14.7285 5.84105 14.7424L4.96605 14.7907C4.73201 14.8036 4.49788 14.767 4.27896 14.6833C4.06003 14.5996 3.86122 14.4706 3.69552 14.3048C3.52982 14.139 3.40095 13.9402 3.31732 13.7212C3.2337 13.5022 3.1972 13.2681 3.21021 13.0341L3.25855 12.1599C3.27227 11.9104 3.22974 11.6611 3.13411 11.4303C3.03848 11.1995 2.89218 10.9932 2.70605 10.8266L2.05438 10.2432C1.87966 10.0869 1.73988 9.89547 1.64418 9.68144C1.54849 9.4674 1.49902 9.23559 1.49902 9.00114C1.49902 8.76669 1.54849 8.53488 1.64418 8.32085C1.73988 8.10682 1.87966 7.91539 2.05438 7.75906L2.70605 7.17573C2.89229 7.00901 3.03866 6.80253 3.13429 6.57159C3.22993 6.34064 3.2724 6.09114 3.25855 5.84156L3.21021 4.96656C3.19743 4.73259 3.23413 4.49855 3.31792 4.27973C3.4017 4.0609 3.53068 3.8622 3.69645 3.69659C3.86222 3.53098 4.06104 3.40218 4.27995 3.31861C4.49885 3.23503 4.73292 3.19856 4.96688 3.21156L5.84105 3.25989C6.09049 3.27362 6.33983 3.23109 6.57062 3.13545C6.80141 3.03982 7.00775 2.89353 7.17438 2.70739L7.75855 2.05489Z" stroke="#F68C1E" stroke-width="2"/>
<path d="M6.9165 6.91797H6.92484V6.9263H6.9165V6.91797ZM11.0832 11.0846H11.0915V11.093H11.0832V11.0846Z" stroke="#F68C1E" stroke-width="3" stroke-linejoin="round"/>
<path d="M11.5 6.5L6.5 11.5" stroke="#F68C1E" stroke-width="2" stroke-linecap="round" stroke-linejoin="round"/>
</svg>
