<svg width="12" height="8" viewBox="0 0 12 8" fill="none" xmlns="http://www.w3.org/2000/svg">
<path fill-rule="evenodd" clip-rule="evenodd" d="M6.58926 7.09222C6.43299 7.24845 6.22106 7.33621 6.00009 7.33621C5.77912 7.33621 5.5672 7.24845 5.41093 7.09222L0.696759 2.37805C0.617167 2.30118 0.553681 2.20923 0.510007 2.10756C0.466333 2.00589 0.443345 1.89654 0.442384 1.78589C0.441422 1.67524 0.462507 1.5655 0.504408 1.46309C0.546309 1.36068 0.608187 1.26763 0.686431 1.18939C0.764675 1.11115 0.857717 1.04927 0.960131 1.00737C1.06254 0.965467 1.17228 0.944382 1.28293 0.945344C1.39358 0.946305 1.50293 0.969294 1.6046 1.01297C1.70627 1.05664 1.79822 1.12013 1.87509 1.19972L6.00009 5.32472L10.1251 1.19972C10.2823 1.04792 10.4928 0.963925 10.7113 0.965824C10.9298 0.967723 11.1388 1.05536 11.2933 1.20987C11.4478 1.36438 11.5354 1.57339 11.5373 1.79188C11.5392 2.01038 11.4552 2.22088 11.3034 2.37805L6.58926 7.09222Z" fill="#F68C1E"/>
</svg>
