<svg width="12" height="7" viewBox="0 0 12 7" fill="none" xmlns="http://www.w3.org/2000/svg">
<path fill-rule="evenodd" clip-rule="evenodd" d="M6.58926 6.59222C6.43299 6.74845 6.22106 6.83621 6.00009 6.83621C5.77912 6.83621 5.5672 6.74845 5.41093 6.59222L0.696759 1.87805C0.617167 1.80118 0.553681 1.70923 0.510007 1.60756C0.466333 1.50589 0.443345 1.39654 0.442384 1.28589C0.441422 1.17524 0.462507 1.0655 0.504408 0.963091C0.546309 0.860678 0.608187 0.767634 0.686431 0.68939C0.764675 0.611146 0.857717 0.549268 0.960131 0.507368C1.06254 0.465467 1.17228 0.444382 1.28293 0.445344C1.39358 0.446305 1.50293 0.469294 1.6046 0.512968C1.70627 0.556642 1.79822 0.620127 1.87509 0.699719L6.00009 4.82472L10.1251 0.699719C10.2823 0.547921 10.4928 0.463925 10.7113 0.465824C10.9298 0.467723 11.1388 0.555363 11.2933 0.70987C11.4478 0.864377 11.5354 1.07339 11.5373 1.29188C11.5392 1.51038 11.4552 1.72088 11.3034 1.87805L6.58926 6.59222Z" fill="#647C9B"/>
</svg>
