<svg width="14" height="15" viewBox="0 0 14 15" fill="none" xmlns="http://www.w3.org/2000/svg">
<path d="M4.87707 0.956881C3.47825 1.44214 2.27192 2.36319 1.43525 3.58473C0.598582 4.80627 0.175687 6.26391 0.22868 7.74356C0.281673 9.22321 0.807761 10.6469 1.72967 11.8054C2.65158 12.964 3.92072 13.7964 5.35066 14.1803C6.50996 14.4795 7.72455 14.4926 8.89004 14.2186C9.94586 13.9814 10.922 13.4742 11.7229 12.7464C12.5564 11.9659 13.1614 10.9729 13.4729 9.87423C13.8114 8.67949 13.8716 7.42306 13.6489 6.20141H7.13895V8.90188H10.9091C10.8338 9.33259 10.6723 9.74366 10.4344 10.1105C10.1964 10.4774 9.88695 10.7924 9.52442 11.0369C9.06404 11.3414 8.54507 11.5463 8.00082 11.6384C7.45498 11.7399 6.8951 11.7399 6.34926 11.6384C5.79603 11.5241 5.27268 11.2957 4.81254 10.968C4.07333 10.4447 3.51828 9.70133 3.2266 8.84391C2.92999 7.97044 2.92999 7.02348 3.2266 6.15001C3.43422 5.53774 3.77745 4.98028 4.23066 4.51922C4.74931 3.98192 5.40593 3.59785 6.12849 3.40915C6.85105 3.22046 7.61162 3.23443 8.32676 3.44954C8.88541 3.62103 9.39628 3.92066 9.81863 4.32454C10.2437 3.90162 10.6681 3.47761 11.0918 3.05251C11.3105 2.82391 11.5489 2.60626 11.7644 2.37219C11.1197 1.77225 10.363 1.30541 9.53754 0.998443C8.0344 0.452651 6.3897 0.437983 4.87707 0.956881Z" fill="white"/>
<path d="M4.87704 0.957412C6.38954 0.438162 8.03424 0.452444 9.5375 0.997881C10.3631 1.30694 11.1195 1.77602 11.7633 2.37819C11.5445 2.61226 11.3138 2.83101 11.0906 3.05851C10.6663 3.48215 10.2422 3.90434 9.8186 4.32507C9.39624 3.92119 8.88538 3.62156 8.32672 3.45007C7.61182 3.23421 6.85127 3.21943 6.12853 3.40735C5.40578 3.59527 4.74875 3.97864 4.22954 4.51538C3.77632 4.97644 3.4331 5.5339 3.22547 6.14616L0.95813 4.39069C1.7697 2.78131 3.17489 1.55025 4.87704 0.957412Z" fill="#E33629"/>
<path d="M0.356569 6.12969C0.478436 5.52571 0.680761 4.94081 0.958132 4.39062L3.22548 6.15047C2.92887 7.02394 2.92887 7.9709 3.22548 8.84437C2.47006 9.42771 1.71428 10.014 0.958132 10.6031C0.263765 9.22097 0.0519955 7.64617 0.356569 6.12969Z" fill="#F8BD00"/>
<path d="M7.13891 6.20312H13.6489C13.8716 7.42477 13.8114 8.6812 13.4728 9.87594C13.1614 10.9746 12.5563 11.9676 11.7228 12.7481C10.9911 12.1772 10.2561 11.6106 9.52438 11.0397C9.88715 10.795 10.1968 10.4796 10.4347 10.1123C10.6727 9.74509 10.834 9.33359 10.9091 8.9025H7.13891C7.13782 8.00344 7.13891 7.10328 7.13891 6.20312Z" fill="#587DBD"/>
<path d="M0.957031 10.6025C1.71318 10.0192 2.46896 9.43292 3.22438 8.84375C3.51663 9.70147 4.07247 10.4449 4.8125 10.9678C5.27407 11.294 5.79855 11.5205 6.3525 11.6328C6.89834 11.7343 7.45822 11.7343 8.00406 11.6328C8.54831 11.5407 9.06728 11.3358 9.52766 11.0312C10.2594 11.6022 10.9944 12.1688 11.7261 12.7397C10.9254 13.4678 9.94921 13.9755 8.89328 14.213C7.72779 14.487 6.5132 14.4738 5.35391 14.1747C4.43702 13.9299 3.58058 13.4983 2.83828 12.907C2.0526 12.2833 1.41089 11.4972 0.957031 10.6025Z" fill="#319F43"/>
</svg>
