<svg width="20" height="21" viewBox="0 0 20 21" fill="none" xmlns="http://www.w3.org/2000/svg">
<path opacity="0.3" d="M7.58342 4.66406L4.16675 8.08073V12.9141L7.58342 16.3307H12.4167L15.8334 12.9141V8.08073L12.4167 4.66406H7.58342ZM10.0001 14.6641C9.54175 14.6641 9.16675 14.2891 9.16675 13.8307C9.16675 13.3724 9.54175 12.9974 10.0001 12.9974C10.4584 12.9974 10.8334 13.3724 10.8334 13.8307C10.8334 14.2891 10.4584 14.6641 10.0001 14.6641ZM10.8334 12.1641H9.16675V6.33073H10.8334V12.1641Z" fill="#647C9B"/>
<path d="M13.1083 3H6.89167L2.5 7.39167V13.6083L6.89167 18H13.1083L17.5 13.6083V7.39167L13.1083 3ZM15.8333 12.9167L12.4167 16.3333H7.58333L4.16667 12.9167V8.08333L7.58333 4.66667H12.4167L15.8333 8.08333V12.9167Z" fill="#647C9B"/>
<path d="M10.0001 14.6667C10.4603 14.6667 10.8334 14.2936 10.8334 13.8333C10.8334 13.3731 10.4603 13 10.0001 13C9.53984 13 9.16675 13.3731 9.16675 13.8333C9.16675 14.2936 9.53984 14.6667 10.0001 14.6667Z" fill="#647C9B"/>
<path d="M9.16675 6.33594H10.8334V12.1693H9.16675V6.33594Z" fill="#647C9B"/>
</svg>
