<svg width="17" height="15" viewBox="0 0 17 15" fill="none" xmlns="http://www.w3.org/2000/svg">
<path d="M8.27525 4.37512L2.83378 8.85681V13.6938C2.83378 13.8191 2.88353 13.9392 2.97209 14.0277C3.06064 14.1163 3.18076 14.1661 3.306 14.1661L6.61332 14.1575C6.73815 14.1569 6.85766 14.1068 6.94571 14.0184C7.03376 13.9299 7.08319 13.8101 7.08318 13.6853V10.8605C7.08318 10.7353 7.13294 10.6152 7.2215 10.5266C7.31005 10.438 7.43017 10.3883 7.55541 10.3883H9.4443C9.56954 10.3883 9.68965 10.438 9.77821 10.5266C9.86677 10.6152 9.91652 10.7353 9.91652 10.8605V13.6832C9.91632 13.7453 9.92839 13.8069 9.95204 13.8644C9.97568 13.9218 10.0104 13.9741 10.0543 14.0181C10.0982 14.0621 10.1503 14.097 10.2077 14.1208C10.2651 14.1446 10.3266 14.1569 10.3887 14.1569L13.6949 14.1661C13.8201 14.1661 13.9402 14.1163 14.0288 14.0277C14.1174 13.9392 14.1671 13.8191 14.1671 13.6938V8.85356L8.72681 4.37512C8.66286 4.32357 8.58318 4.29546 8.50103 4.29546C8.41888 4.29546 8.33921 4.32357 8.27525 4.37512ZM16.8706 7.42125L14.4032 5.38745V1.29948C14.4032 1.20555 14.3659 1.11546 14.2995 1.04905C14.2331 0.982626 14.143 0.945312 14.0491 0.945312H12.3963C12.3023 0.945312 12.2123 0.982626 12.1458 1.04905C12.0794 1.11546 12.0421 1.20555 12.0421 1.29948V3.44248L9.39973 1.26849C9.14615 1.05982 8.82795 0.94573 8.49956 0.94573C8.17116 0.94573 7.85296 1.05982 7.59938 1.26849L0.128533 7.42125C0.0926695 7.45089 0.0629985 7.48731 0.0412149 7.52842C0.0194313 7.56954 0.00596203 7.61454 0.00157668 7.66086C-0.00280867 7.70718 0.00197585 7.75391 0.0156569 7.79838C0.0293379 7.84285 0.0516473 7.88419 0.0813104 7.92003L0.833915 8.83497C0.863497 8.87094 0.899883 8.90072 0.94099 8.92261C0.982098 8.9445 1.02712 8.95807 1.07348 8.96254C1.11983 8.967 1.16662 8.96229 1.21115 8.94865C1.25568 8.93502 1.29709 8.91273 1.33299 8.88307L8.27525 3.16505C8.33921 3.1135 8.41888 3.08539 8.50103 3.08539C8.58318 3.08539 8.66286 3.1135 8.72681 3.16505L15.6694 8.88307C15.7052 8.91274 15.7466 8.93505 15.791 8.94873C15.8355 8.96241 15.8822 8.96719 15.9285 8.96281C15.9749 8.95842 16.0199 8.94495 16.061 8.92317C16.1021 8.90139 16.1385 8.87171 16.1681 8.83585L16.9208 7.92092C16.9504 7.88487 16.9726 7.84332 16.9861 7.79865C16.9996 7.75398 17.0042 7.70709 16.9995 7.66066C16.9949 7.61422 16.9811 7.56917 16.959 7.52808C16.9368 7.487 16.9068 7.45069 16.8706 7.42125Z" fill="#F68C1E"/>
</svg>
