<svg width="18" height="18" viewBox="0 0 18 18" fill="none" xmlns="http://www.w3.org/2000/svg">
<path d="M5.875 8.75V7.5C5.875 7.33424 5.94085 7.17527 6.05806 7.05806C6.17527 6.94085 6.33424 6.875 6.5 6.875C6.66576 6.875 6.82473 6.94085 6.94194 7.05806C7.05915 7.17527 7.125 7.33424 7.125 7.5V8.75C7.125 8.91576 7.05915 9.07473 6.94194 9.19194C6.82473 9.30915 6.66576 9.375 6.5 9.375C6.33424 9.375 6.17527 9.30915 6.05806 9.19194C5.94085 9.07473 5.875 8.91576 5.875 8.75ZM9 9.375C9.16576 9.375 9.32473 9.30915 9.44194 9.19194C9.55915 9.07473 9.625 8.91576 9.625 8.75V6.875C9.625 6.70924 9.55915 6.55027 9.44194 6.43306C9.32473 6.31585 9.16576 6.25 9 6.25C8.83424 6.25 8.67527 6.31585 8.55806 6.43306C8.44085 6.55027 8.375 6.70924 8.375 6.875V8.75C8.375 8.91576 8.44085 9.07473 8.55806 9.19194C8.67527 9.30915 8.83424 9.375 9 9.375ZM11.5 9.375C11.6658 9.375 11.8247 9.30915 11.9419 9.19194C12.0592 9.07473 12.125 8.91576 12.125 8.75V6.25C12.125 6.08424 12.0592 5.92527 11.9419 5.80806C11.8247 5.69085 11.6658 5.625 11.5 5.625C11.3342 5.625 11.1753 5.69085 11.0581 5.80806C10.9408 5.92527 10.875 6.08424 10.875 6.25V8.75C10.875 8.91576 10.9408 9.07473 11.0581 9.19194C11.1753 9.30915 11.3342 9.375 11.5 9.375ZM15.875 3.75V11.25H16.5C16.6658 11.25 16.8247 11.3158 16.9419 11.4331C17.0592 11.5503 17.125 11.7092 17.125 11.875C17.125 12.0408 17.0592 12.1997 16.9419 12.3169C16.8247 12.4342 16.6658 12.5 16.5 12.5H9.625V13.8578C10.042 14.0052 10.3935 14.2954 10.6173 14.6769C10.8411 15.0584 10.9228 15.5067 10.848 15.9426C10.7732 16.3786 10.5467 16.774 10.2085 17.0591C9.87037 17.3442 9.4423 17.5006 9 17.5006C8.5577 17.5006 8.12963 17.3442 7.79146 17.0591C7.45329 16.774 7.2268 16.3786 7.152 15.9426C7.07721 15.5067 7.15893 15.0584 7.38273 14.6769C7.60653 14.2954 7.95799 14.0052 8.375 13.8578V12.5H1.5C1.33424 12.5 1.17527 12.4342 1.05806 12.3169C0.940848 12.1997 0.875 12.0408 0.875 11.875C0.875 11.7092 0.940848 11.5503 1.05806 11.4331C1.17527 11.3158 1.33424 11.25 1.5 11.25H2.125V3.75C1.79348 3.75 1.47554 3.6183 1.24112 3.38388C1.0067 3.14946 0.875 2.83152 0.875 2.5V1.25C0.875 0.918479 1.0067 0.600537 1.24112 0.366116C1.47554 0.131696 1.79348 0 2.125 0H15.875C16.2065 0 16.5245 0.131696 16.7589 0.366116C16.9933 0.600537 17.125 0.918479 17.125 1.25V2.5C17.125 2.83152 16.9933 3.14946 16.7589 3.38388C16.5245 3.6183 16.2065 3.75 15.875 3.75ZM9.625 15.625C9.625 15.5014 9.58834 15.3805 9.51967 15.2778C9.45099 15.175 9.35338 15.0949 9.23918 15.0476C9.12497 15.0003 8.99931 14.9879 8.87807 15.012C8.75683 15.0361 8.64547 15.0956 8.55806 15.1831C8.47065 15.2705 8.41112 15.3818 8.38701 15.5031C8.36289 15.6243 8.37527 15.75 8.42257 15.8642C8.46988 15.9784 8.54999 16.076 8.65277 16.1447C8.75555 16.2133 8.87639 16.25 9 16.25C9.16576 16.25 9.32473 16.1842 9.44194 16.0669C9.55915 15.9497 9.625 15.7908 9.625 15.625ZM2.125 2.5H15.875V1.25H2.125V2.5ZM14.625 3.75H3.375V11.25H14.625V3.75Z" fill="#647C9B"/>
</svg>
