<svg width="22" height="18" viewBox="0 0 22 18" fill="none" xmlns="http://www.w3.org/2000/svg">
<path opacity="0.2" d="M19.4695 8.21435L16.2126 11.4712C15.6788 12.0058 15.0154 12.3927 14.2873 12.5941C13.5591 12.7956 12.7912 12.8047 12.0585 12.6206C12.0295 12.6525 12.0004 12.6834 11.9695 12.7144L8.7126 15.9712C8.30849 16.3852 7.82623 16.7148 7.29377 16.941C6.76132 17.1672 6.18927 17.2855 5.61077 17.289C5.03227 17.2925 4.45883 17.1811 3.92369 16.9613C3.38855 16.7415 2.90236 16.4177 2.49329 16.0087C2.08422 15.5996 1.76042 15.1134 1.54064 14.5783C1.32086 14.0431 1.20949 13.4697 1.21297 12.8912C1.21645 12.3127 1.33472 11.7406 1.56092 11.2082C1.78713 10.6757 2.11676 10.1935 2.53073 9.78935L5.7876 6.53248C6.32155 5.99809 6.98495 5.61129 7.71302 5.40984C8.4411 5.20839 9.20897 5.19918 9.94166 5.3831C9.97073 5.35123 9.99979 5.32029 10.0354 5.28935L13.2876 2.03248C14.1107 1.22894 15.2174 0.782218 16.3676 0.789142C17.5179 0.796066 18.6191 1.25608 19.4325 2.06946C20.2459 2.88284 20.7059 3.98404 20.7128 5.13431C20.7197 6.28459 20.273 7.39124 19.4695 8.21435Z" fill="#4679BD"/>
<path d="M21.5 5.2728C21.4624 6.57842 20.9256 7.81989 20 8.74155L16.7422 12.0012C16.2678 12.4783 15.7034 12.8565 15.0817 13.114C14.4601 13.3715 13.7935 13.5031 13.1207 13.5012H13.116C12.4316 13.5008 11.7543 13.3631 11.1241 13.0965C10.4938 12.8298 9.92339 12.4396 9.44648 11.9488C8.96958 11.458 8.59587 10.8766 8.34744 10.2389C8.099 9.60129 7.98088 8.92031 8.00005 8.23624C8.00564 8.03733 8.09002 7.84879 8.23463 7.71209C8.37924 7.57539 8.57223 7.50174 8.77114 7.50733C8.97005 7.51293 9.1586 7.59731 9.29529 7.74192C9.43199 7.88653 9.50564 8.07952 9.50005 8.27843C9.48639 8.76211 9.56982 9.24362 9.74542 9.69451C9.92101 10.1454 10.1852 10.5565 10.5224 10.9036C10.8596 11.2506 11.2629 11.5266 11.7085 11.7151C12.1541 11.9036 12.633 12.0009 13.1169 12.0012C13.5926 12.0024 14.0637 11.9093 14.5032 11.7273C14.9426 11.5453 15.3417 11.278 15.6772 10.9409L18.935 7.68312C19.6072 7.0025 19.9828 6.0836 19.9798 5.12703C19.9768 4.17046 19.5955 3.25393 18.9191 2.57753C18.2427 1.90113 17.3261 1.51981 16.3696 1.51682C15.413 1.51382 14.4941 1.8894 13.8135 2.56155L12.7822 3.5928C12.6404 3.72752 12.4516 3.80151 12.2561 3.79901C12.0605 3.7965 11.8736 3.7177 11.7353 3.5794C11.597 3.4411 11.5182 3.25424 11.5157 3.05867C11.5132 2.8631 11.5872 2.67429 11.7219 2.53249L12.7532 1.50124C13.2289 1.0253 13.7938 0.647753 14.4155 0.390166C15.0373 0.13258 15.7036 0 16.3766 0C17.0496 0 17.716 0.13258 18.3377 0.390166C18.9594 0.647753 19.5243 1.0253 20 1.50124C20.4928 1.99526 20.88 2.5844 21.1378 3.23279C21.3957 3.88118 21.5189 4.57527 21.5 5.2728ZM9.2188 14.4069L8.18755 15.4381C7.85122 15.7768 7.45093 16.0451 7.00993 16.2276C6.56894 16.4102 6.09606 16.5032 5.6188 16.5012C4.90283 16.5007 4.2031 16.2879 3.60801 15.8898C3.01293 15.4917 2.54919 14.9261 2.2754 14.2646C2.00161 13.603 1.93006 12.8752 2.06977 12.173C2.20948 11.4708 2.5542 10.8257 3.06036 10.3194L6.31255 7.06155C6.82478 6.54661 7.48002 6.19759 8.19316 6.05982C8.9063 5.92205 9.64439 6.0019 10.3116 6.28899C10.9788 6.57608 11.5442 7.05715 11.9345 7.66972C12.3247 8.28229 12.5218 8.99805 12.5 9.72405C12.4973 9.82255 12.514 9.92063 12.5492 10.0127C12.5843 10.1047 12.6373 10.1889 12.705 10.2605C12.7728 10.3321 12.854 10.3896 12.9439 10.4298C13.0339 10.47 13.1309 10.492 13.2294 10.4947H13.25C13.4454 10.4948 13.6331 10.4186 13.7732 10.2823C13.9133 10.1461 13.9947 9.96062 14 9.7653C14.0179 9.06902 13.8942 8.37636 13.6363 7.72933C13.3785 7.0823 12.9919 6.49439 12.5 6.00124C11.5393 5.04089 10.2364 4.50141 8.87801 4.50141C7.51958 4.50141 6.21675 5.04089 5.25598 6.00124L2.00005 9.25905C1.28401 9.9748 0.796218 10.8867 0.598307 11.8796C0.400395 12.8725 0.50125 13.9018 0.888126 14.8374C1.275 15.7729 1.93053 16.5729 2.77188 17.136C3.61323 17.6991 4.60263 18.0002 5.61505 18.0012C6.28805 18.0032 6.95475 17.8716 7.57656 17.6141C8.19837 17.3567 8.76292 16.9784 9.23755 16.5012L10.2688 15.47C10.3902 15.327 10.4536 15.1438 10.4465 14.9564C10.4395 14.769 10.3624 14.591 10.2307 14.4576C10.0989 14.3241 9.92189 14.2449 9.73459 14.2355C9.54728 14.2262 9.36326 14.2873 9.2188 14.4069Z" fill="#4679BD"/>
</svg>
