<svg width="14" height="18" viewBox="0 0 14 18" fill="none" xmlns="http://www.w3.org/2000/svg">
<path d="M11.9999 6.16927H11.1666V4.5026C11.1666 2.2026 9.29992 0.335938 6.99992 0.335938C4.69992 0.335938 2.83325 2.2026 2.83325 4.5026V6.16927H1.99992C1.08325 6.16927 0.333252 6.91927 0.333252 7.83594V16.1693C0.333252 17.0859 1.08325 17.8359 1.99992 17.8359H11.9999C12.9166 17.8359 13.6666 17.0859 13.6666 16.1693V7.83594C13.6666 6.91927 12.9166 6.16927 11.9999 6.16927ZM4.49992 4.5026C4.49992 3.11927 5.61659 2.0026 6.99992 2.0026C8.38325 2.0026 9.49992 3.11927 9.49992 4.5026V6.16927H4.49992V4.5026ZM11.9999 16.1693H1.99992V7.83594H11.9999V16.1693ZM6.99992 13.6693C7.91658 13.6693 8.66658 12.9193 8.66658 12.0026C8.66658 11.0859 7.91658 10.3359 6.99992 10.3359C6.08325 10.3359 5.33325 11.0859 5.33325 12.0026C5.33325 12.9193 6.08325 13.6693 6.99992 13.6693Z" fill="#647C9B"/>
</svg>
