<svg width="20" height="21" viewBox="0 0 20 21" fill="none" xmlns="http://www.w3.org/2000/svg">
<path d="M1.89741 4.87199C1.91937 4.79285 1.95671 4.7188 2.0073 4.6541C2.05789 4.58939 2.12074 4.53529 2.19225 4.49489C2.26376 4.4545 2.34254 4.42859 2.42407 4.41865C2.5056 4.40872 2.58829 4.41495 2.66741 4.43699L4.08658 4.83033C4.46259 4.9327 4.8057 5.13063 5.08257 5.40486C5.35943 5.6791 5.56063 6.02031 5.66658 6.39533L7.45908 12.8837L7.59075 13.3395C8.12221 13.5354 8.57006 13.9082 8.85908 14.3953L9.11741 14.3153L16.5091 12.3945C16.5885 12.3738 16.6713 12.369 16.7526 12.3803C16.8339 12.3916 16.9122 12.4188 16.983 12.4603C17.0538 12.5019 17.1157 12.557 17.1653 12.6225C17.2148 12.6879 17.2509 12.7625 17.2716 12.842C17.2923 12.9214 17.2971 13.0042 17.2858 13.0855C17.2745 13.1668 17.2473 13.2451 17.2057 13.3159C17.1642 13.3867 17.1091 13.4487 17.0436 13.4982C16.9781 13.5477 16.9035 13.5838 16.8241 13.6045L9.45991 15.5178L9.18491 15.6028C9.17991 16.6612 8.44908 17.6295 7.34325 17.9162C6.01825 18.2612 4.65575 17.4978 4.30075 16.2128C3.94575 14.9278 4.73241 13.6053 6.05741 13.2612C6.12352 13.2445 6.18936 13.23 6.25491 13.2178L4.46158 6.72783C4.41308 6.5612 4.3224 6.40991 4.19831 6.2886C4.07422 6.16728 3.92092 6.08004 3.75325 6.03533L2.33325 5.64116C2.25412 5.61929 2.18007 5.58204 2.11534 5.53154C2.05061 5.48105 1.99646 5.41829 1.95598 5.34687C1.91551 5.27544 1.88951 5.19674 1.87946 5.11526C1.86941 5.03378 1.87551 4.95112 1.89741 4.87199Z" fill="#647C9B"/>
<path opacity="0.5" d="M7.96989 7.7754L8.39906 9.32791C8.80323 10.7904 9.00489 11.5221 9.59906 11.8546C10.1932 12.1879 10.9474 11.9912 12.4557 11.5996L14.0557 11.1829C15.5641 10.7912 16.3182 10.5954 16.6616 10.0196C17.0049 9.44291 16.8032 8.71124 16.3982 7.24874L15.9699 5.69707C15.5657 4.23374 15.3632 3.50207 14.7699 3.16957C14.1749 2.83624 13.4207 3.03291 11.9124 3.42541L10.3124 3.8404C8.80406 4.23207 8.04989 4.42874 7.70739 5.00541C7.36406 5.58124 7.56573 6.3129 7.96989 7.7754Z" fill="#647C9B"/>
</svg>
