<svg width="20" height="21" viewBox="0 0 20 21" fill="none" xmlns="http://www.w3.org/2000/svg">
<path d="M4.48438 13.7422C4.41211 13.9688 4.375 14.209 4.375 14.4531C4.375 14.209 4.41406 13.9688 4.48633 13.7422H4.48438ZM5.97461 8.66016H3.59375V12.3359H5.97461L6.22656 12.4375L16.4062 16.5273V4.46875L6.22656 8.55859L5.97461 8.66016Z" fill="#647C9B" fill-opacity="0.5"/>
<path d="M17.1875 2.6875C17.1133 2.6875 17.0371 2.70117 16.9609 2.73242L5.70312 7.25586H2.5C2.32812 7.25586 2.1875 7.40039 2.1875 7.58008V13.4199C2.1875 13.5996 2.32812 13.7441 2.5 13.7441H4.48633C4.41406 13.9707 4.375 14.2109 4.375 14.4551C4.375 15.7422 5.42578 16.7891 6.71875 16.7891C7.80078 16.7891 8.71289 16.0547 8.98242 15.0625L16.9629 18.2695C17.0391 18.2988 17.1152 18.3145 17.1895 18.3145C17.5195 18.3145 17.8145 18.0371 17.8145 17.666V3.33594C17.8125 2.96484 17.5195 2.6875 17.1875 2.6875ZM6.71875 15.3887C6.20117 15.3887 5.78125 14.9707 5.78125 14.4551C5.78125 14.2363 5.85742 14.0273 5.99609 13.8613L7.6543 14.5273C7.61523 15.0078 7.21094 15.3887 6.71875 15.3887ZM16.4062 16.5293L6.22656 12.4395L5.97461 12.3379H3.59375V8.66211H5.97461L6.22656 8.56055L16.4062 4.4707V16.5293Z" fill="#647C9B"/>
</svg>
