<svg width="20" height="21" viewBox="0 0 20 21" fill="none" xmlns="http://www.w3.org/2000/svg">
<path opacity="0.3" d="M3.33325 14.8109L3.82492 14.3193L4.30825 13.8359H16.6666V3.83594H3.33325V14.8109ZM14.9999 12.1693H8.74992L10.4166 10.5026H14.9999V12.1693ZM4.99992 10.1109L9.89992 5.21094C10.0666 5.04427 10.3249 5.04427 10.4916 5.21094L11.9666 6.68594C12.1333 6.8526 12.1333 7.11094 11.9666 7.2776L7.05825 12.1693H4.99992V10.1109Z" fill="#647C9B"/>
<path d="M16.6667 2.16406H3.33341C2.41675 2.16406 1.67508 2.91406 1.67508 3.83073L1.66675 18.8307L5.00008 15.4974H16.6667C17.5834 15.4974 18.3334 14.7474 18.3334 13.8307V3.83073C18.3334 2.91406 17.5834 2.16406 16.6667 2.16406ZM16.6667 13.8307H4.30841L3.81675 14.3224L3.33341 14.8057V3.83073H16.6667V13.8307ZM8.75008 12.1641H15.0001V10.4974H10.4167L8.75008 12.1641ZM11.9667 7.2724C12.1334 7.10573 12.1334 6.8474 11.9667 6.68073L10.4917 5.20573C10.3251 5.03906 10.0667 5.03906 9.90008 5.20573L5.00008 10.1057V12.1641H7.05842L11.9667 7.2724Z" fill="#647C9B"/>
</svg>
