<svg width="13" height="12" viewBox="0 0 13 12" fill="none" xmlns="http://www.w3.org/2000/svg">
<path fill-rule="evenodd" clip-rule="evenodd" d="M2.34431 0.689319C3.05422 -0.0165145 4.22322 0.108902 4.81764 0.903402L5.55381 1.88574C6.03797 2.53207 5.99481 3.43507 5.42022 4.00615L5.28139 4.14499C5.26565 4.20327 5.26405 4.26446 5.27672 4.32349C5.31347 4.56149 5.51239 5.06549 6.34539 5.89382C7.17839 6.72215 7.68589 6.92049 7.92739 6.95782C7.98824 6.97006 8.05108 6.96826 8.11114 6.95257L8.34914 6.71574C8.86014 6.20824 9.64414 6.11315 10.2765 6.45674L11.3906 7.0634C12.3456 7.5814 12.5865 8.87874 11.8048 9.65632L10.9759 10.48C10.7146 10.7396 10.3634 10.956 9.93522 10.9962C8.87939 11.0948 6.41947 10.9688 3.83356 8.39807C1.42031 5.99824 0.95714 3.90524 0.898223 2.8739C0.869056 2.3524 1.11522 1.9114 1.42906 1.5999L2.34431 0.689319ZM4.11764 1.42782C3.82189 1.0329 3.27122 1.0014 2.96089 1.30999L2.04506 2.21999C1.85256 2.41132 1.76039 2.62249 1.77206 2.82432C1.81872 3.6439 2.19206 5.53215 4.45072 7.77799C6.82022 10.1335 9.00831 10.2041 9.85414 10.1247C10.0268 10.109 10.1983 10.0192 10.3587 9.8599L11.1871 9.03565C11.5242 8.70082 11.4501 8.09065 10.973 7.83165L9.85881 7.22557C9.55081 7.05874 9.19031 7.11357 8.96631 7.3364L8.70089 7.60065L8.39172 7.29032C8.70089 7.60065 8.70031 7.60124 8.69972 7.60124L8.69914 7.6024L8.69739 7.60415L8.69331 7.60765L8.68456 7.61582C8.65994 7.63868 8.6334 7.65936 8.60522 7.67765C8.55856 7.70857 8.49672 7.74299 8.41914 7.77157C8.26164 7.83049 8.05281 7.86199 7.79497 7.82232C7.28922 7.74474 6.61897 7.39999 5.72822 6.51449C4.83806 5.62899 4.49039 4.96282 4.41222 4.45765C4.37197 4.19982 4.40406 3.99099 4.46356 3.83349C4.4963 3.74486 4.54319 3.66212 4.60239 3.58849L4.62106 3.56807L4.62922 3.55932L4.63272 3.55582L4.63447 3.55407L4.63564 3.5529L4.80364 3.38607C5.05331 3.13699 5.08831 2.72457 4.85322 2.41015L4.11764 1.42782Z" fill="black"/>
</svg>
