<svg width="16" height="17" viewBox="0 0 16 17" fill="none" xmlns="http://www.w3.org/2000/svg">
<path opacity="0.16" d="M1.33325 6H14.6666L13.9708 13.6508C13.9331 14.0649 13.7421 14.45 13.4351 14.7305C13.1281 15.0109 12.7274 15.1665 12.3116 15.1667H3.68825C3.27245 15.1665 2.87173 15.0109 2.56475 14.7305C2.25777 14.45 2.06672 14.0649 2.02909 13.6508L1.33325 6Z" fill="#647C9B"/>
<path d="M1.33325 6H14.6666L13.9708 13.6508C13.9331 14.0649 13.7421 14.45 13.4351 14.7305C13.1281 15.0109 12.7274 15.1665 12.3116 15.1667H3.68825C3.27245 15.1665 2.87173 15.0109 2.56475 14.7305C2.25777 14.45 2.06672 14.0649 2.02909 13.6508L1.33325 6Z" stroke="#647C9B" stroke-width="2" stroke-linejoin="round"/>
<path d="M4.6665 7.66927V5.16927C4.6665 4.28522 5.01769 3.43737 5.64281 2.81225C6.26794 2.18713 7.11578 1.83594 7.99984 1.83594C8.88389 1.83594 9.73174 2.18713 10.3569 2.81225C10.982 3.43737 11.3332 4.28522 11.3332 5.16927V7.66927" stroke="#647C9B" stroke-width="2" stroke-linecap="round"/>
</svg>
