<svg width="20" height="21" viewBox="0 0 20 21" fill="none" xmlns="http://www.w3.org/2000/svg">
<path d="M9.16667 16.3333C10.9348 16.3333 12.6305 15.631 13.8807 14.3807C15.131 13.1305 15.8333 11.4348 15.8333 9.66667C15.8333 7.89856 15.131 6.20286 13.8807 4.95262C12.6305 3.70238 10.9348 3 9.16667 3C7.39856 3 5.70286 3.70238 4.45262 4.95262C3.20238 6.20286 2.5 7.89856 2.5 9.66667C2.5 11.4348 3.20238 13.1305 4.45262 14.3807C5.70286 15.631 7.39856 16.3333 9.16667 16.3333Z" fill="#647C9B" fill-opacity="0.16"/>
<path d="M17.5 18L14.1667 14.6667M15.8333 9.66667C15.8333 11.4348 15.131 13.1305 13.8807 14.3807C12.6305 15.631 10.9348 16.3333 9.16667 16.3333C7.39856 16.3333 5.70286 15.631 4.45262 14.3807C3.20238 13.1305 2.5 11.4348 2.5 9.66667C2.5 7.89856 3.20238 6.20286 4.45262 4.95262C5.70286 3.70238 7.39856 3 9.16667 3C10.9348 3 12.6305 3.70238 13.8807 4.95262C15.131 6.20286 15.8333 7.89856 15.8333 9.66667Z" stroke="#647C9B" stroke-width="1.5" stroke-miterlimit="10" stroke-linecap="round" stroke-linejoin="round"/>
</svg>
