<svg width="11" height="10" viewBox="0 0 11 10" fill="none" xmlns="http://www.w3.org/2000/svg">
<path d="M5.50004 0.832031C7.80129 0.832031 9.66671 2.69745 9.66671 4.9987C9.66671 7.29995 7.80129 9.16536 5.50004 9.16536C3.19879 9.16536 1.33337 7.29995 1.33337 4.9987C1.33337 2.69745 3.19879 0.832031 5.50004 0.832031ZM5.50004 1.66536C4.61599 1.66536 3.76814 2.01655 3.14302 2.64168C2.5179 3.2668 2.16671 4.11464 2.16671 4.9987C2.16671 5.88275 2.5179 6.7306 3.14302 7.35572C3.76814 7.98084 4.61599 8.33203 5.50004 8.33203C6.3841 8.33203 7.23194 7.98084 7.85706 7.35572C8.48218 6.7306 8.83337 5.88275 8.83337 4.9987C8.83337 4.11464 8.48218 3.2668 7.85706 2.64168C7.23194 2.01655 6.3841 1.66536 5.50004 1.66536ZM5.50004 2.4987C5.6021 2.49871 5.7006 2.53618 5.77686 2.604C5.85313 2.67181 5.90185 2.76526 5.91379 2.86661L5.91671 2.91536V4.8262L7.04462 5.95411C7.11935 6.0291 7.16274 6.12971 7.16597 6.23552C7.1692 6.34134 7.13203 6.44441 7.06202 6.52381C6.99201 6.60322 6.89439 6.65299 6.78901 6.66303C6.68363 6.67307 6.57837 6.64262 6.49462 6.57786L6.45546 6.54328L5.20546 5.29328C5.1407 5.22847 5.09911 5.14412 5.08712 5.05328L5.08337 4.9987V2.91536C5.08337 2.80486 5.12727 2.69888 5.20541 2.62074C5.28355 2.5426 5.38953 2.4987 5.50004 2.4987Z" fill="#647C9B"/>
</svg>
