<svg width="24" height="25" viewBox="0 0 24 25" fill="none" xmlns="http://www.w3.org/2000/svg">
<path opacity="0.5" d="M3 10.917C3 7.719 3 6.12 3.378 5.582C3.755 5.045 5.258 4.53 8.265 3.501L8.838 3.305C10.405 2.768 11.188 2.5 12 2.5C12.812 2.5 13.595 2.768 15.162 3.305L15.735 3.501C18.742 4.53 20.245 5.045 20.622 5.582C21 6.12 21 7.72 21 10.917V12.491C21 18.129 16.761 20.866 14.101 22.027C13.38 22.342 13.02 22.5 12 22.5C10.98 22.5 10.62 22.342 9.899 22.027C7.239 20.865 3 18.13 3 12.491V10.917Z" fill="#F68C1E"/>
<path d="M12 7.75C12.1989 7.75 12.3897 7.82902 12.5303 7.96967C12.671 8.11032 12.75 8.30109 12.75 8.5V12.5C12.75 12.6989 12.671 12.8897 12.5303 13.0303C12.3897 13.171 12.1989 13.25 12 13.25C11.8011 13.25 11.6103 13.171 11.4697 13.0303C11.329 12.8897 11.25 12.6989 11.25 12.5V8.5C11.25 8.30109 11.329 8.11032 11.4697 7.96967C11.6103 7.82902 11.8011 7.75 12 7.75ZM12 16.5C12.2652 16.5 12.5196 16.3946 12.7071 16.2071C12.8946 16.0196 13 15.7652 13 15.5C13 15.2348 12.8946 14.9804 12.7071 14.7929C12.5196 14.6054 12.2652 14.5 12 14.5C11.7348 14.5 11.4804 14.6054 11.2929 14.7929C11.1054 14.9804 11 15.2348 11 15.5C11 15.7652 11.1054 16.0196 11.2929 16.2071C11.4804 16.3946 11.7348 16.5 12 16.5Z" fill="#F68C1E"/>
</svg>
