<svg width="88" height="81" viewBox="0 0 88 81" fill="none" xmlns="http://www.w3.org/2000/svg">
<path d="M57.9016 30.1786C57.9016 30.1786 57.5325 28.7411 57.0145 27.3425C56.5794 26.166 56.2409 25.2032 56.2409 25.2032C51.3535 25.6524 47.6579 26.9628 44.8663 28.7258C40.8508 26.0982 36.1683 25.2557 32.73 25.0319C31.738 24.9658 30.8458 24.954 30.1111 24.9641H30.0688C28.7941 24.9862 27.973 25.0777 27.8562 25.0896V25.0981L28.447 30.1447C28.4707 30.1413 29.2207 30.0616 30.4091 30.0531C32.8401 30.0311 37.1061 30.3193 40.8051 32.2349C34.1368 40.0972 34.5143 55.0201 44.477 55.0557C44.6175 55.0557 44.7563 55.0557 44.8917 55.0506C45.0153 55.0473 45.1355 55.0422 45.2557 55.0354C55.5739 54.4404 54.8612 39.7345 48.8683 32.3247C51.1487 31.1855 54.0977 30.399 57.9016 30.1786ZM45.2049 50.065C44.9696 50.104 44.736 50.1125 44.5058 50.0956H44.5024C44.2772 50.0786 44.0571 50.0362 43.8489 49.9735C43.8438 49.9718 43.8371 49.9701 43.832 49.9684C43.7321 49.9379 43.6339 49.9023 43.5408 49.8616C43.5307 49.8565 43.5205 49.8531 43.512 49.8481C43.4257 49.8108 43.3427 49.7684 43.2615 49.7226C43.253 49.7175 43.2463 49.7141 43.2378 49.7107C43.1565 49.665 43.0803 49.6141 43.0076 49.5616C42.9923 49.5497 42.9771 49.5395 42.9618 49.5277C42.8907 49.4734 42.8213 49.4175 42.7587 49.3564C40.4056 47.1086 41.0743 39.5548 44.7986 35.3846C47.0637 38.1206 48.1184 42.4417 48.1099 44.837C48.0964 48.4309 46.6574 49.8277 45.2066 50.0684L45.2049 50.065Z" fill="#F68C1F"/>
<path d="M86.7401 31.3578C86.3625 30.7729 85.9072 30.2779 85.3925 29.8626C85.3536 29.827 85.3113 29.7914 85.2672 29.7558C84.9439 29.4846 84.5732 29.2286 84.1482 28.9963C82.2522 27.964 79.8568 27.5656 77.5341 27.1503C72.5164 26.2467 66.8571 25.6517 61.6125 25.2635C59.6081 19.354 57.448 13.9463 55.2913 9.75407C53.1058 5.51097 50.0484 0.784737 45.3354 0.298213C45.2965 0.293127 45.2558 0.289737 45.2169 0.286346C45.1576 0.281261 45.0967 0.27448 45.0374 0.269395C42.0664 0.0354562 38.1812 1.15768 33.7171 9.67778C31.5316 13.8514 29.3342 19.2455 27.2875 25.1381C22.0396 25.4907 16.3785 26.0399 11.3557 26.9096C9.04494 27.3062 6.58348 27.7165 4.68405 28.7116V28.7082C4.66374 28.7183 4.64512 28.7285 4.6265 28.7404C4.61973 28.7438 4.61127 28.7472 4.60449 28.7522C3.95273 29.1167 3.43132 29.5286 3.01656 29.9677C3.0081 29.9762 2.99624 29.9863 2.98947 29.9982C2.66782 30.3101 2.37665 30.661 2.11764 31.0509C0.7227 33.175 0.563562 36.0671 1.603 40.4305C2.85912 45.6789 11.7062 73.3141 23.4802 77.9132C27.1419 79.344 32.8994 80.0763 40.6376 80.1034C41.7973 80.1068 46.7083 80.1255 47.8679 80.1288C55.6061 80.156 61.3738 79.4643 65.0457 78.0624C66.4813 77.5114 67.8813 76.6198 69.2254 75.467C69.2254 75.467 69.5352 75.2212 69.9314 74.8398C79.2829 66.1146 86.0849 45.2296 87.187 40.7407C88.262 36.3841 88.1231 33.492 86.7401 31.3578ZM76.6352 32.1545C78.8173 32.5478 80.644 32.9123 81.6953 33.4768C82.347 33.8396 82.3843 34.2193 82.4113 34.3413C82.5468 34.933 82.2099 35.9484 81.5903 36.8112C80.1598 38.8116 76.6284 42.3647 68.1488 48.4878C66.8165 42.6563 65.1591 36.4417 63.3156 30.5C67.822 30.8763 72.5012 31.4086 76.6369 32.1545H76.6352ZM38.2185 12.0409C40.9779 6.77051 42.8469 5.51606 44.2029 5.36179C44.213 5.36179 44.2215 5.3601 44.2316 5.3584C44.257 5.35501 44.2824 5.35501 44.3061 5.35162C44.3349 5.34993 44.362 5.34823 44.3908 5.34654C44.4009 5.34654 44.4094 5.34654 44.4178 5.34654C44.4551 5.34654 44.4923 5.34484 44.5313 5.34484C44.5414 5.34484 44.5516 5.34484 44.5601 5.34484C44.5973 5.34484 44.6345 5.34484 44.6735 5.34823C44.6819 5.34823 44.6904 5.34823 44.6972 5.34993C46.0616 5.44147 47.9543 6.60438 50.7763 12.0867C52.95 16.306 55.1254 21.8188 57.1331 27.83C57.382 28.5793 57.6308 29.3371 57.8763 30.1016C60.1397 37.1605 62.1525 44.7465 63.6558 51.6477C62.4827 52.4546 61.2367 53.2971 59.9145 54.1803C53.3021 58.5912 47.0858 62.3885 44.3112 64.0566C41.5535 62.3682 35.366 58.5217 28.784 54.0684C27.4669 53.1768 26.2278 52.3241 25.058 51.5087C26.6087 44.6261 28.674 37.0604 30.9848 30.0236C31.3217 28.998 31.6636 27.9826 32.0124 26.9824C32.0174 26.9689 32.0208 26.957 32.0259 26.9435L32.7318 25.0347C32.7217 25.0347 32.7115 25.033 32.7014 25.033C34.4789 20.0965 36.3529 15.6042 38.2202 12.0409H38.2185ZM65.9243 64.3431C65.9802 64.7923 66.0411 65.2297 66.0987 65.6586C66.5642 69.1286 66.6776 70.6492 65.8938 71.6036C64.8273 72.1834 61.836 72.8411 54.433 69.6948C52.5285 68.8862 50.7154 67.8149 49.2358 67.0232C52.9178 64.772 58.7549 61.1239 64.7528 57.0554C65.2454 59.6796 65.6416 62.1376 65.9226 64.3448L65.9243 64.3431ZM39.219 67.0758C33.0044 70.3322 24.1099 74.077 22.4763 71.1527C21.9261 70.178 22.0717 68.6353 22.5152 65.4992C22.5762 65.0754 22.6371 64.638 22.6981 64.1837C22.9927 62.0037 23.4023 59.5762 23.9051 56.9859C29.8184 61.1052 35.5657 64.8025 39.219 67.0741V67.0758ZM12.2157 31.924C16.3684 31.2069 21.0441 30.7136 25.5489 30.3712C23.663 36.2976 21.96 42.497 20.5871 48.3166C12.1497 42.1325 8.64711 38.5539 7.22678 36.5434C6.61564 35.6755 6.28384 34.6583 6.42265 34.0667C6.44974 33.9447 6.52592 33.6293 7.18445 33.2717C8.23743 32.719 10.0336 32.3003 12.2157 31.924ZM19.3749 53.7667C18.6352 57.3148 18.0511 60.6187 17.6617 63.504C17.6025 63.9447 17.5415 64.3719 17.484 64.7838C17.4704 64.8754 17.4586 64.9652 17.445 65.0551C13.6428 59.0337 10.2841 50.9832 8.23573 44.9482C11.3557 47.7419 15.2866 50.7933 19.3733 53.765L19.3749 53.7667ZM44.9765 75.0008V74.972C44.8665 74.972 44.6396 74.9754 44.3129 74.9822C44.2976 74.9822 44.2841 74.9822 44.2689 74.9822C44.2536 74.9822 44.2401 74.9822 44.2265 74.9822C43.9015 74.9737 43.6747 74.9686 43.5629 74.9686V74.9974C40.0959 75.0602 37.2112 74.9907 34.8175 74.8364C35.2593 74.6652 35.7062 74.4872 36.1633 74.2956C39.5406 72.8835 42.5523 71.251 44.2909 70.2543C46.0261 71.2663 49.0191 72.9174 52.3863 74.3533C52.8417 74.5482 53.2886 74.7296 53.7287 74.9042C51.3333 75.0432 48.4469 75.0907 44.9782 75.0008H44.9765ZM71.1672 65.2466C71.1519 65.1568 71.1418 65.0669 71.1282 64.9771C71.0758 64.5668 71.0199 64.138 70.9606 63.6972C70.5916 60.7967 70.0279 57.4707 69.3084 53.8989C73.4289 50.9781 77.3868 47.9742 80.517 45.211C78.428 51.2307 75.01 59.2524 71.1672 65.2466Z" fill="#477ABD"/>
</svg>
