<svg width="25" height="25" viewBox="0 0 25 25" fill="none" xmlns="http://www.w3.org/2000/svg">
<path d="M16.5 5.5H22.5M19.5 2.5V8.5M21.5 12V19.5C21.5 20.0304 21.2893 20.5391 20.9142 20.9142C20.5391 21.2893 20.0304 21.5 19.5 21.5H5.5C4.96957 21.5 4.46086 21.2893 4.08579 20.9142C3.71071 20.5391 3.5 20.0304 3.5 19.5V5.5C3.5 4.96957 3.71071 4.46086 4.08579 4.08579C4.46086 3.71071 4.96957 3.5 5.5 3.5H13" stroke="#F68C1E" stroke-width="2" stroke-linecap="round" stroke-linejoin="round"/>
<path d="M21.5 15.4997L18.414 12.4137C18.0389 12.0388 17.5303 11.8281 17 11.8281C16.4697 11.8281 15.9611 12.0388 15.586 12.4137L6.5 21.4997" stroke="#F68C1E" stroke-width="2" stroke-linecap="round" stroke-linejoin="round"/>
<path d="M9.5 11.5C10.6046 11.5 11.5 10.6046 11.5 9.5C11.5 8.39543 10.6046 7.5 9.5 7.5C8.39543 7.5 7.5 8.39543 7.5 9.5C7.5 10.6046 8.39543 11.5 9.5 11.5Z" stroke="#F68C1E" stroke-width="2" stroke-linecap="round" stroke-linejoin="round"/>
</svg>
