<svg width="75" height="75" viewBox="0 0 75 75" fill="none" xmlns="http://www.w3.org/2000/svg">
<rect width="75" height="75" rx="3" fill="#F68C1E" fill-opacity="0.3"/>
<path d="M29.1666 55.8346C28.2499 55.8346 27.4655 55.5085 26.8133 54.8563C26.161 54.2041 25.8344 53.4191 25.8333 52.5013V22.5013C25.8333 21.5846 26.1599 20.8002 26.8133 20.148C27.4666 19.4957 28.251 19.1691 29.1666 19.168H39.1666C39.6388 19.168 40.0349 19.328 40.3549 19.648C40.6749 19.968 40.8344 20.3635 40.8333 20.8346V25.8346C40.8333 26.3069 40.6733 26.703 40.3533 27.023C40.0333 27.343 39.6377 27.5024 39.1666 27.5013H29.1666V47.5013H45.8333V45.8346C45.8333 45.3624 45.9932 44.9669 46.3132 44.648C46.6332 44.3291 47.0288 44.1691 47.4999 44.168C47.971 44.1669 48.3671 44.3269 48.6882 44.648C49.0094 44.9691 49.1688 45.3646 49.1666 45.8346V52.5013C49.1666 53.418 48.8405 54.203 48.1882 54.8563C47.536 55.5096 46.751 55.8357 45.8333 55.8346H29.1666ZM45.8333 34.5013V24.168C45.8333 23.6957 45.9932 23.3002 46.3132 22.9813C46.6332 22.6624 47.0288 22.5024 47.4999 22.5013C47.971 22.5002 48.3671 22.6602 48.6882 22.9813C49.0094 23.3024 49.1688 23.698 49.1666 24.168V34.5013L52.3332 31.3346C52.6388 31.0291 53.0277 30.8763 53.4999 30.8763C53.9721 30.8763 54.361 31.0291 54.6666 31.3346C54.9721 31.6402 55.1249 32.0291 55.1249 32.5013C55.1249 32.9735 54.9721 33.3624 54.6666 33.668L48.6666 39.668C48.3333 40.0013 47.9444 40.168 47.4999 40.168C47.0555 40.168 46.6666 40.0013 46.3332 39.668L40.3333 33.668C40.0277 33.3624 39.8749 32.9735 39.8749 32.5013C39.8749 32.0291 40.0277 31.6402 40.3333 31.3346C40.6388 31.0291 41.0277 30.8763 41.4999 30.8763C41.9721 30.8763 42.361 31.0291 42.6666 31.3346L45.8333 34.5013Z" fill="#F68C1E"/>
</svg>
