<svg width="24" height="20" viewBox="0 0 24 20" fill="none" xmlns="http://www.w3.org/2000/svg">
<path d="M3.15471 19.1554H20.4609C22.5501 19.1554 23.6151 18.1106 23.6151 16.0414V5.52471C23.6151 3.45557 22.5501 2.421 20.4609 2.421H18.1106C17.3271 2.421 17.0863 2.26029 16.6341 1.758L15.8203 0.853714C15.3283 0.301714 14.8161 0 13.7713 0H9.77357C8.739 0 8.22643 0.301714 7.72457 0.853714L6.91071 1.758C6.46886 2.25 6.21771 2.421 5.43429 2.421H3.15429C1.065 2.421 0 3.45557 0 5.52471V16.0414C0 18.1106 1.06543 19.1554 3.15471 19.1554ZM3.18429 17.538C2.19 17.538 1.61743 17.0057 1.61743 15.9609V5.61514C1.61743 4.57029 2.19 4.038 3.18429 4.038H5.83586C6.74014 4.038 7.22229 3.86743 7.72457 3.30514L8.51786 2.421C9.09043 1.77814 9.38186 1.61743 10.2759 1.61743H13.269C14.163 1.61743 14.4544 1.77814 15.027 2.421L15.8203 3.30471C16.3226 3.86743 16.8047 4.038 17.709 4.038H20.4309C21.4251 4.038 21.9981 4.57029 21.9981 5.61514V15.9609C21.9981 17.0057 21.4256 17.538 20.4309 17.538H3.18429ZM11.8029 15.9411C12.5245 15.9432 13.2393 15.8024 13.9063 15.5269C14.5732 15.2514 15.1791 14.8466 15.6888 14.3358C16.1986 13.8251 16.6023 13.2185 16.8765 12.5511C17.1508 11.8836 17.2903 11.1685 17.2869 10.4469C17.2869 7.39286 14.856 4.95257 11.8024 4.95257C8.769 4.95257 6.32829 7.39286 6.32829 10.4469C6.32829 13.5 8.769 15.9411 11.8024 15.9411M19.0243 7.99543C19.7074 7.99543 20.2697 7.44343 20.2697 6.76029C20.2697 6.42998 20.1385 6.1132 19.9049 5.87963C19.6714 5.64607 19.3546 5.51486 19.0243 5.51486C18.694 5.51486 18.3772 5.64607 18.1436 5.87963C17.9101 6.1132 17.7789 6.42998 17.7789 6.76029C17.7789 7.44343 18.3411 7.99543 19.0243 7.99543ZM11.8029 14.4146C9.62314 14.4146 7.84543 12.6467 7.84543 10.4469C7.84543 8.247 9.61329 6.47957 11.8029 6.47957C12.324 6.47895 12.8402 6.58114 13.3219 6.78029C13.8035 6.97944 14.2411 7.27164 14.6097 7.64015C14.9782 8.00867 15.2705 8.44626 15.4697 8.92788C15.6689 9.40949 15.7711 9.92567 15.7706 10.4469C15.7712 10.9681 15.669 11.4843 15.4698 11.966C15.2706 12.4476 14.9784 12.8853 14.6098 13.2538C14.2413 13.6224 13.8036 13.9146 13.322 14.1138C12.8403 14.313 12.3241 14.4152 11.8029 14.4146Z" fill="#F68C1E"/>
</svg>
