<svg width="20" height="20" viewBox="0 0 20 20" fill="none" xmlns="http://www.w3.org/2000/svg">
<path fill-rule="evenodd" clip-rule="evenodd" d="M10.5893 13.0883C10.433 13.2445 10.2211 13.3323 10.0001 13.3323C9.77912 13.3323 9.5672 13.2445 9.41093 13.0883L4.69676 8.37415C4.61717 8.29727 4.55368 8.20532 4.51001 8.10365C4.46633 8.00198 4.44335 7.89263 4.44238 7.78198C4.44142 7.67133 4.46251 7.5616 4.50441 7.45919C4.54631 7.35677 4.60819 7.26373 4.68643 7.18548C4.76468 7.10724 4.85772 7.04536 4.96013 7.00346C5.06254 6.96156 5.17228 6.94048 5.28293 6.94144C5.39358 6.9424 5.50293 6.96539 5.6046 7.00906C5.70627 7.05274 5.79822 7.11622 5.87509 7.19581L10.0001 11.3208L14.1251 7.19581C14.2823 7.04401 14.4928 6.96002 14.7113 6.96192C14.9298 6.96382 15.1388 7.05146 15.2933 7.20596C15.4478 7.36047 15.5354 7.56948 15.5373 7.78798C15.5392 8.00648 15.4552 8.21698 15.3034 8.37415L10.5893 13.0883Z" fill="black"/>
</svg>
