<svg width="14" height="8" viewBox="0 0 14 8" fill="none" xmlns="http://www.w3.org/2000/svg">
<path fill-rule="evenodd" clip-rule="evenodd" d="M7.70706 7.70832C7.51954 7.89579 7.26523 8.00111 7.00006 8.00111C6.7349 8.00111 6.48059 7.89579 6.29306 7.70832L0.636064 2.05132C0.540553 1.95907 0.464371 1.84873 0.411962 1.72672C0.359552 1.60472 0.331967 1.4735 0.330813 1.34072C0.329659 1.20794 0.354961 1.07626 0.405242 0.953366C0.455523 0.83047 0.529777 0.718817 0.62367 0.624924C0.717563 0.531032 0.829213 0.456778 0.952109 0.406498C1.07501 0.356217 1.20669 0.330915 1.33947 0.332069C1.47224 0.333223 1.60347 0.360809 1.72547 0.413218C1.84747 0.465627 1.95782 0.541809 2.05006 0.637319L7.00006 5.58732L11.9501 0.637319C12.1387 0.455161 12.3913 0.354367 12.6535 0.356645C12.9157 0.358924 13.1665 0.464092 13.3519 0.6495C13.5373 0.834909 13.6425 1.08572 13.6447 1.34792C13.647 1.61011 13.5462 1.86272 13.3641 2.05132L7.70706 7.70832Z" fill="black"/>
</svg>
