<svg width="55" height="55" viewBox="0 0 55 55" fill="none" xmlns="http://www.w3.org/2000/svg">
<mask id="mask0_1_104705" style="mask-type:luminance" maskUnits="userSpaceOnUse" x="7" y="3" width="42" height="49">
<path d="M8.49981 44C8.09981 46 9.99981 47.1667 10.9998 47.5H19.4998L20.9998 45.5L41.4998 23.5L41.9998 22.5V11.5C41.9998 9.1 40.3331 8.16667 39.4998 8H33.4998C33.4998 10 31.4998 11.1667 30.4998 11.5H20.9998C18.1998 11.1 17.1664 8.66667 16.9998 7.5H11.9998C9.59976 7.9 8.66646 10 8.49981 11V44Z" fill="#555555"/>
<path d="M16.3809 9.30208H11.8698C11.338 9.30208 10.8279 9.51334 10.4519 9.88939C10.0758 10.2654 9.86458 10.7755 9.86458 11.3073V43.9635C9.86458 45.0716 10.7629 45.9687 11.8698 45.9687H21.3435L20.899 47.6841C20.7997 48.0736 20.7492 48.4567 20.7477 48.8333H11.8698C10.5782 48.8333 9.33959 48.3203 8.42633 47.407C7.51307 46.4937 7 45.2551 7 43.9635V11.3073C7 10.0157 7.51307 8.77709 8.42633 7.86383C9.33959 6.95057 10.5782 6.4375 11.8698 6.4375H16.3809C16.6873 5.44197 17.3048 4.5709 18.1427 3.9522C18.9806 3.33349 19.9949 2.99976 21.0365 3H29.6302C30.6718 2.99976 31.686 3.33349 32.524 3.9522C33.3619 4.5709 33.9794 5.44197 34.2857 6.4375H38.7969C40.0884 6.4375 41.3271 6.95057 42.2403 7.86383C43.1536 8.77709 43.6667 10.0157 43.6667 11.3073V23.6273C42.6773 23.6303 41.7001 23.8468 40.8021 24.2621V11.3073C40.8021 10.7755 40.5908 10.2654 40.2148 9.88939C39.8387 9.51334 39.3287 9.30208 38.7969 9.30208H34.2857C33.9794 10.2976 33.3619 11.1687 32.524 11.7874C31.686 12.4061 30.6718 12.7398 29.6302 12.7396H21.0365C19.9949 12.7398 18.9806 12.4061 18.1427 11.7874C17.3048 11.1687 16.6873 10.2976 16.3809 9.30208ZM28.4099 36.2292H16.4531C16.0733 36.2292 15.7089 36.3801 15.4403 36.6487C15.1717 36.9173 15.0208 37.2816 15.0208 37.6615C15.0208 38.0413 15.1717 38.4056 15.4403 38.6742C15.7089 38.9428 16.0733 39.0937 16.4531 39.0937H25.59L28.4099 36.2292ZM19.0312 7.86979C19.0312 8.97667 19.9296 9.875 21.0365 9.875H29.6302C29.8935 9.875 30.1543 9.82313 30.3976 9.72236C30.6409 9.62159 30.8619 9.47389 31.0481 9.28769C31.2343 9.10149 31.382 8.88043 31.4828 8.63715C31.5836 8.39387 31.6354 8.13312 31.6354 7.86979C31.6354 7.60646 31.5836 7.34572 31.4828 7.10243C31.382 6.85915 31.2343 6.6381 31.0481 6.4519C30.8619 6.26569 30.6409 6.11799 30.3976 6.01722C30.1543 5.91645 29.8935 5.86458 29.6302 5.86458H21.0365C20.5046 5.86458 19.9946 6.07585 19.6186 6.4519C19.2425 6.82794 19.0312 7.33798 19.0312 7.86979ZM15.0208 21.6198C15.0208 20.8292 15.6625 20.1875 16.4531 20.1875H34.2135C34.4016 20.1875 34.5879 20.2245 34.7617 20.2965C34.9354 20.3685 35.0933 20.474 35.2263 20.607C35.3593 20.74 35.4648 20.8979 35.5368 21.0717C35.6088 21.2454 35.6458 21.4317 35.6458 21.6198C35.6458 21.8079 35.6088 21.9941 35.5368 22.1679C35.4648 22.3417 35.3593 22.4996 35.2263 22.6326C35.0933 22.7656 34.9354 22.8711 34.7617 22.9431C34.5879 23.015 34.4016 23.0521 34.2135 23.0521H16.4531C15.6625 23.0521 15.0208 22.4104 15.0208 21.6198ZM16.4531 28.2083C16.0733 28.2083 15.7089 28.3592 15.4403 28.6278C15.1717 28.8964 15.0208 29.2608 15.0208 29.6406C15.0208 30.0205 15.1717 30.3848 15.4403 30.6534C15.7089 30.922 16.0733 31.0729 16.4531 31.0729H25.0469C25.4267 31.0729 25.7911 30.922 26.0597 30.6534C26.3283 30.3848 26.4792 30.0205 26.4792 29.6406C26.4792 29.2608 26.3283 28.8964 26.0597 28.6278C25.7911 28.3592 25.4267 28.2083 25.0469 28.2083H16.4531ZM46.914 27.255C46.4883 26.8291 45.9826 26.4918 45.4259 26.2624C44.8693 26.033 44.2727 25.916 43.6706 25.9184C43.0685 25.9207 42.4728 26.0423 41.918 26.276C41.3631 26.5097 40.86 26.851 40.4377 27.2802L24.9564 43.0045C24.5326 43.4344 24.2294 43.9683 24.0775 44.5525L23.1173 48.2581C22.6784 49.9505 24.2184 51.4894 25.9097 51.0517L29.6165 50.0903C30.2006 49.9387 30.7345 49.636 31.1645 49.2126L46.8888 33.7312C47.3177 33.309 47.6589 32.806 47.8925 32.2512C48.1262 31.6964 48.2476 31.1009 48.25 30.4989C48.2523 29.897 48.1355 29.3005 47.9062 28.744C47.6769 28.1874 47.3396 27.6817 46.914 27.2561" fill="white"/>
</mask>
<g mask="url(#mask0_1_104705)">
<path d="M0 0H55V55H0V0Z" fill="#4679BD"/>
</g>
</svg>
