<svg width="20" height="20" viewBox="0 0 20 20" fill="none" xmlns="http://www.w3.org/2000/svg">
<path d="M5.83334 5.83594H5C4.55798 5.83594 4.13405 6.01153 3.82149 6.32409C3.50893 6.63665 3.33334 7.06058 3.33334 7.5026V15.0026C3.33334 15.4446 3.50893 15.8686 3.82149 16.1811C4.13405 16.4937 4.55798 16.6693 5 16.6693H12.5C12.942 16.6693 13.366 16.4937 13.6785 16.1811C13.9911 15.8686 14.1667 15.4446 14.1667 15.0026V14.1693" stroke="#647C9B" stroke-width="2" stroke-linecap="round" stroke-linejoin="round"/>
<path d="M13.3333 4.16676L15.8333 6.66676M16.9875 5.48759C17.3157 5.15938 17.5001 4.71424 17.5001 4.25009C17.5001 3.78594 17.3157 3.34079 16.9875 3.01259C16.6593 2.68438 16.2142 2.5 15.75 2.5C15.2858 2.5 14.8407 2.68438 14.5125 3.01259L7.5 10.0001V12.5001H10L16.9875 5.48759Z" stroke="#647C9B" stroke-width="2" stroke-linecap="round" stroke-linejoin="round"/>
</svg>
