<svg width="24" height="24" viewBox="0 0 24 24" fill="none" xmlns="http://www.w3.org/2000/svg">
<path fill-rule="evenodd" clip-rule="evenodd" d="M12.7068 15.7083C12.5193 15.8958 12.265 16.0011 11.9998 16.0011C11.7347 16.0011 11.4803 15.8958 11.2928 15.7083L5.63582 10.0513C5.54031 9.95907 5.46413 9.84873 5.41172 9.72672C5.35931 9.60472 5.33172 9.4735 5.33057 9.34072C5.32942 9.20794 5.35472 9.07626 5.405 8.95337C5.45528 8.83047 5.52953 8.71882 5.62343 8.62492C5.71732 8.53103 5.82897 8.45678 5.95187 8.4065C6.07476 8.35622 6.20644 8.33092 6.33922 8.33207C6.472 8.33322 6.60322 8.36081 6.72522 8.41322C6.84723 8.46563 6.95757 8.54181 7.04982 8.63732L11.9998 13.5873L16.9498 8.63732C17.1384 8.45516 17.391 8.35437 17.6532 8.35665C17.9154 8.35892 18.1662 8.46409 18.3516 8.6495C18.537 8.83491 18.6422 9.08572 18.6445 9.34792C18.6468 9.61011 18.546 9.86272 18.3638 10.0513L12.7068 15.7083Z" fill="#647C9B"/>
</svg>
