<svg width="145" height="42" viewBox="0 0 145 42" fill="none" xmlns="http://www.w3.org/2000/svg">
<path d="M6.17767 6.37314V14.3118H15.9067C16.6871 14.3118 17.3406 14.5593 17.8654 15.056C18.3902 15.5527 18.6542 16.1918 18.6542 16.9733C18.6542 17.6344 18.3919 18.2209 17.8654 18.7329C17.3389 19.2448 16.6871 19.4991 15.9067 19.4991H6.17767V30.0094C6.17767 30.7909 5.90003 31.4452 5.34476 31.9707C4.78949 32.4979 4.13605 32.7607 3.3861 32.7607C2.54473 32.7607 1.8625 32.5064 1.33601 31.9945C0.809523 31.4842 0.547119 30.8214 0.547119 30.0094V3.93882C0.547119 3.15733 0.809523 2.50298 1.33601 1.97747C1.8625 1.45195 2.51425 1.1875 3.29467 1.1875H17.9331C18.7135 1.1875 19.367 1.435 19.8918 1.9317C20.4166 2.42839 20.6807 3.06748 20.6807 3.84897C20.6807 4.5101 20.4166 5.09664 19.8918 5.6086C19.3653 6.12055 18.7135 6.37483 17.9331 6.37483H6.17597L6.17767 6.37314Z" fill="#477ABD"/>
<path d="M43.2484 8.94592C43.7579 9.45787 44.0136 10.119 44.0136 10.931V30.0105C44.0136 30.792 43.7579 31.4464 43.2484 31.9719C42.7371 32.4991 42.0921 32.7619 41.3117 32.7619C40.5313 32.7619 39.8931 32.5076 39.3971 31.9956C38.901 31.4854 38.6387 30.8378 38.6082 30.0563C37.8565 30.9293 36.8442 31.6735 35.5677 32.2889C34.2913 32.9043 32.9472 33.2145 31.537 33.2145C29.4649 33.2145 27.5875 32.6805 25.9064 31.6125C24.2237 30.5462 22.8948 29.0646 21.9197 27.1694C20.9429 25.2758 20.4553 23.1246 20.4553 20.7191C20.4553 18.3136 20.9344 16.1556 21.896 14.2468C22.8558 12.338 24.1712 10.8496 25.837 9.78165C27.5028 8.71537 29.343 8.17969 31.3541 8.17969C32.7948 8.17969 34.1474 8.44244 35.4086 8.96965C36.6698 9.49686 37.7363 10.1648 38.6065 10.9768V10.931C38.6065 10.1495 38.8604 9.49517 39.3717 8.96965C39.8812 8.44414 40.5279 8.17969 41.3083 8.17969C42.0888 8.17969 42.7337 8.43566 43.245 8.94592H43.2484ZM36.9881 26.1082C38.2188 24.6808 38.835 22.8839 38.835 20.7191C38.835 18.5543 38.2188 16.7506 36.9881 15.3063C35.7557 13.8637 34.166 13.1416 32.2141 13.1416C30.2622 13.1416 28.7149 13.8637 27.4842 15.3063C26.2518 16.749 25.6373 18.5543 25.6373 20.7191C25.6373 22.8839 26.245 24.6808 27.4622 26.1082C28.6777 27.5372 30.2622 28.2509 32.2141 28.2509C34.166 28.2509 35.7573 27.5372 36.9881 26.1082Z" fill="#477ABD"/>
<path d="M47.347 5.20184C46.9255 4.87128 46.7156 4.28473 46.7156 3.44222V2.58444C46.7156 1.74362 46.9407 1.15708 47.391 0.824819C47.8413 0.494254 48.5625 0.328125 49.5529 0.328125C50.6041 0.328125 51.3389 0.494254 51.7604 0.824819C52.1802 1.15538 52.3901 1.74193 52.3901 2.58444V3.44222C52.3901 4.31525 52.1718 4.90857 51.7367 5.22388C51.3016 5.53918 50.5584 5.69684 49.5071 5.69684C48.4559 5.69684 47.7652 5.5324 47.3453 5.20014L47.347 5.20184ZM51.4912 31.9708C50.98 32.498 50.335 32.7608 49.5546 32.7608C48.7741 32.7608 48.1275 32.498 47.6179 31.9708C47.1066 31.4453 46.8527 30.791 46.8527 30.0095V11.3809C46.8527 10.5994 47.1066 9.94503 47.6179 9.41951C48.1275 8.894 48.7741 8.62955 49.5546 8.62955C50.335 8.62955 50.98 8.8923 51.4912 9.41951C52.0008 9.94672 52.2564 10.5994 52.2564 11.3809V30.0095C52.2564 30.791 52.0008 31.4453 51.4912 31.9708Z" fill="#477ABD"/>
<path d="M69.8896 8.94762C70.5041 9.45957 70.8122 10.0597 70.8122 10.7513C70.8122 11.6837 70.5718 12.3821 70.0911 12.8483C69.6103 13.3145 69.0398 13.5467 68.3796 13.5467C67.9292 13.5467 67.418 13.4416 66.8475 13.2314C66.7578 13.2026 66.5546 13.1416 66.2397 13.0517C65.9249 12.9619 65.5863 12.9161 65.2257 12.9161C64.4453 12.9161 63.6936 13.1568 62.9742 13.6383C62.253 14.1197 61.6605 14.8486 61.1949 15.8251C60.7294 16.8032 60.4975 17.9678 60.4975 19.3206V30.0105C60.4975 30.792 60.2418 31.4464 59.7323 31.9719C59.221 32.4991 58.576 32.7619 57.7956 32.7619C57.0152 32.7619 56.3685 32.4991 55.8589 31.9719C55.3477 31.4464 55.0938 30.792 55.0938 30.0105V11.3819C55.0938 10.6004 55.3477 9.94609 55.8589 9.42058C56.3685 8.89507 57.0152 8.63061 57.7956 8.63061C58.576 8.63061 59.221 8.89337 59.7323 9.42058C60.2418 9.94779 60.4975 10.6004 60.4975 11.3819V11.9685C61.1882 10.7361 62.1785 9.79691 63.4702 9.14935C64.7602 8.50347 66.1432 8.17969 67.6144 8.17969C68.515 8.17969 69.2734 8.43567 69.8896 8.94592V8.94762Z" fill="#477ABD"/>
<path d="M95.2033 18.1463C96.2089 19.4398 96.7116 21.1079 96.7116 23.1523C96.7116 26.7309 95.6908 29.2262 93.6492 30.64C91.6076 32.0538 89.1749 32.7607 86.3528 32.7607H75.1374C74.357 32.7607 73.7036 32.4979 73.1788 31.9707C72.6523 31.4452 72.3899 30.7909 72.3899 30.0094V3.93882C72.3899 3.15733 72.6523 2.50298 73.1788 1.97747C73.7053 1.45195 74.357 1.1875 75.1374 1.1875H86.4883C92.1933 1.1875 95.0458 3.86423 95.0458 9.21599C95.0458 10.5688 94.7225 11.7639 94.0775 12.8014C93.4308 13.8388 92.5082 14.6576 91.3079 15.2594C92.8993 15.8917 94.1977 16.8529 95.2049 18.1463H95.2033ZM88.2658 7.43433C87.6496 6.81897 86.7862 6.51045 85.6757 6.51045H78.2439V13.5472H85.8111C86.7117 13.5472 87.5006 13.2472 88.1761 12.6454C88.8515 12.0436 89.1901 11.2316 89.1901 10.2094C89.1901 8.97697 88.882 8.05139 88.2658 7.43603V7.43433ZM89.6624 26.4461C90.4581 25.6951 90.8559 24.5966 90.8559 23.154C90.8559 21.3808 90.3904 20.223 89.4593 19.6805C88.5282 19.1397 87.3872 18.8685 86.0363 18.8685H78.2439V27.5734H86.3511C87.7613 27.5734 88.8651 27.197 89.6624 26.4461Z" fill="#F68C1F"/>
<path d="M120.18 8.94592C120.69 9.45787 120.945 10.119 120.945 10.931V30.0105C120.945 30.792 120.69 31.4464 120.18 31.9719C119.669 32.4991 119.024 32.7619 118.244 32.7619C117.463 32.7619 116.825 32.5076 116.329 31.9956C115.833 31.4854 115.571 30.8378 115.54 30.0563C114.788 30.9293 113.776 31.6735 112.5 32.2889C111.223 32.9043 109.879 33.2145 108.469 33.2145C106.397 33.2145 104.519 32.6805 102.838 31.6125C101.156 30.5462 99.8266 29.0646 98.8515 27.1694C97.8747 25.2758 97.3872 23.1246 97.3872 20.7191C97.3872 18.3136 97.8663 16.1556 98.8279 14.2468C99.7877 12.338 101.103 10.8496 102.769 9.78165C104.435 8.71537 106.275 8.17969 108.286 8.17969C109.727 8.17969 111.079 8.44244 112.341 8.96965C113.602 9.49686 114.668 10.1648 115.538 10.9768V10.931C115.538 10.1495 115.792 9.49517 116.304 8.96965C116.813 8.44414 117.46 8.17969 118.24 8.17969C119.021 8.17969 119.666 8.43566 120.177 8.94592H120.18ZM113.92 26.1082C115.151 24.6808 115.767 22.8839 115.767 20.7191C115.767 18.5543 115.151 16.7506 113.92 15.3063C112.688 13.8637 111.098 13.1416 109.146 13.1416C107.194 13.1416 105.647 13.8637 104.416 15.3063C103.184 16.749 102.569 18.5543 102.569 20.7191C102.569 22.8839 103.177 24.6808 104.394 26.1082C105.61 27.5372 107.194 28.2509 109.146 28.2509C111.098 28.2509 112.689 27.5372 113.92 26.1082Z" fill="#F68C1F"/>
<path d="M143.378 9.42108C143.888 9.94829 144.143 10.6009 144.143 11.3824V30.5518C144.143 34.461 143.092 37.3106 140.989 39.099C138.887 40.8875 136.08 41.7826 132.567 41.7826C131.546 41.7826 130.502 41.6995 129.437 41.5351C128.371 41.3689 127.507 41.1519 126.847 40.8807C125.376 40.2484 124.639 39.3771 124.639 38.265C124.639 38.0548 124.685 37.8141 124.775 37.5428C124.954 36.8817 125.262 36.3765 125.699 36.0324C126.134 35.6866 126.606 35.5137 127.118 35.5137C127.417 35.5137 127.703 35.5595 127.974 35.6493C128.184 35.7391 128.552 35.89 129.078 36.1002C129.603 36.3104 130.16 36.4833 130.744 36.619C131.33 36.7546 131.937 36.8224 132.569 36.8224C134.7 36.8224 136.269 36.363 137.275 35.4459C138.281 34.5288 138.783 32.9573 138.783 30.7332V30.2823C137.221 32.2369 134.79 33.2133 131.487 33.2133C129.925 33.2133 128.543 32.8454 127.343 32.108C126.141 31.3723 125.21 30.3484 124.55 29.0414C123.889 27.7327 123.559 26.2375 123.559 24.5542V11.3841C123.559 10.6026 123.813 9.94829 124.324 9.42278C124.834 8.89727 125.481 8.63281 126.261 8.63281C127.042 8.63281 127.687 8.89557 128.198 9.42278C128.707 9.94999 128.963 10.6026 128.963 11.3841V22.9302C128.963 24.8237 129.376 26.185 130.202 27.0122C131.028 27.8395 132.235 28.2531 133.828 28.2531C135.421 28.2531 136.598 27.7954 137.455 26.8766C138.311 25.9595 138.738 24.644 138.738 22.9302V11.3841C138.738 10.6026 138.993 9.94829 139.503 9.42278C140.013 8.89727 140.659 8.63281 141.44 8.63281C142.22 8.63281 142.865 8.89557 143.376 9.42278L143.378 9.42108Z" fill="#F68C1F"/>
</svg>
