<svg width="269" height="99" viewBox="0 0 269 99" fill="none" xmlns="http://www.w3.org/2000/svg">
<path d="M67.9016 40.1786C67.9016 40.1786 67.5325 38.7411 67.0145 37.3425C66.5794 36.166 66.2409 35.2032 66.2409 35.2032C61.3535 35.6524 57.6579 36.9628 54.8663 38.7258C50.8508 36.0982 46.1683 35.2557 42.73 35.0319C41.738 34.9658 40.8458 34.954 40.1111 34.9641H40.0688C38.7941 34.9862 37.973 35.0777 37.8562 35.0896V35.0981L38.447 40.1447C38.4707 40.1413 39.2207 40.0616 40.4091 40.0531C42.8401 40.0311 47.1061 40.3193 50.8051 42.2349C44.1368 50.0972 44.5143 65.0201 54.477 65.0557C54.6175 65.0557 54.7563 65.0557 54.8917 65.0506C55.0153 65.0473 55.1355 65.0422 55.2557 65.0354C65.5739 64.4404 64.8612 49.7345 58.8683 42.3247C61.1487 41.1855 64.0977 40.399 67.9016 40.1786ZM55.2049 60.065C54.9696 60.104 54.736 60.1125 54.5058 60.0956H54.5024C54.2772 60.0786 54.0571 60.0362 53.8489 59.9735C53.8438 59.9718 53.8371 59.9701 53.832 59.9684C53.7321 59.9379 53.6339 59.9023 53.5408 59.8616C53.5307 59.8565 53.5205 59.8531 53.512 59.8481C53.4257 59.8108 53.3427 59.7684 53.2615 59.7226C53.253 59.7175 53.2463 59.7141 53.2378 59.7107C53.1565 59.665 53.0803 59.6141 53.0076 59.5616C52.9923 59.5497 52.9771 59.5395 52.9618 59.5277C52.8907 59.4734 52.8213 59.4175 52.7587 59.3564C50.4056 57.1086 51.0743 49.5548 54.7986 45.3846C57.0637 48.1206 58.1184 52.4417 58.1099 54.837C58.0964 58.4309 56.6574 59.8277 55.2066 60.0684L55.2049 60.065Z" fill="#F68C1F"/>
<path d="M96.7401 41.3578C96.3625 40.7729 95.9072 40.2779 95.3925 39.8626C95.3536 39.827 95.3113 39.7914 95.2672 39.7558C94.9439 39.4846 94.5732 39.2286 94.1482 38.9963C92.2522 37.964 89.8568 37.5656 87.5341 37.1503C82.5164 36.2467 76.8571 35.6517 71.6125 35.2635C69.6081 29.354 67.448 23.9463 65.2913 19.7541C63.1058 15.511 60.0484 10.7847 55.3354 10.2982C55.2965 10.2931 55.2558 10.2897 55.2169 10.2863C55.1576 10.2813 55.0967 10.2745 55.0374 10.2694C52.0664 10.0355 48.1812 11.1577 43.7171 19.6778C41.5316 23.8514 39.3342 29.2455 37.2875 35.1381C32.0396 35.4907 26.3785 36.0399 21.3557 36.9096C19.0449 37.3062 16.5835 37.7165 14.6841 38.7116V38.7082C14.6637 38.7183 14.6451 38.7285 14.6265 38.7404C14.6197 38.7438 14.6113 38.7472 14.6045 38.7522C13.9527 39.1167 13.4313 39.5286 13.0166 39.9677C13.0081 39.9762 12.9962 39.9863 12.9895 39.9982C12.6678 40.3101 12.3767 40.661 12.1176 41.0509C10.7227 43.175 10.5636 46.0671 11.603 50.4305C12.8591 55.6789 21.7062 83.3141 33.4802 87.9132C37.1419 89.344 42.8994 90.0763 50.6376 90.1034C51.7973 90.1068 56.7083 90.1255 57.8679 90.1288C65.6061 90.156 71.3738 89.4643 75.0457 88.0624C76.4813 87.5114 77.8813 86.6198 79.2254 85.467C79.2254 85.467 79.5352 85.2212 79.9314 84.8398C89.2829 76.1146 96.0849 55.2296 97.187 50.7407C98.262 46.3841 98.1231 43.492 96.7401 41.3578ZM86.6352 42.1545C88.8173 42.5478 90.644 42.9123 91.6953 43.4768C92.347 43.8396 92.3843 44.2193 92.4113 44.3413C92.5468 44.933 92.2099 45.9484 91.5903 46.8112C90.1598 48.8116 86.6284 52.3647 78.1488 58.4878C76.8165 52.6563 75.1591 46.4417 73.3156 40.5C77.822 40.8763 82.5012 41.4086 86.6369 42.1545H86.6352ZM48.2185 22.0409C50.9779 16.7705 52.8469 15.5161 54.2029 15.3618C54.213 15.3618 54.2215 15.3601 54.2316 15.3584C54.257 15.355 54.2824 15.355 54.3061 15.3516C54.3349 15.3499 54.362 15.3482 54.3908 15.3465C54.4009 15.3465 54.4094 15.3465 54.4178 15.3465C54.4551 15.3465 54.4923 15.3448 54.5313 15.3448C54.5414 15.3448 54.5516 15.3448 54.5601 15.3448C54.5973 15.3448 54.6345 15.3448 54.6735 15.3482C54.6819 15.3482 54.6904 15.3482 54.6972 15.3499C56.0616 15.4415 57.9543 16.6044 60.7763 22.0867C62.95 26.306 65.1254 31.8188 67.1331 37.83C67.382 38.5793 67.6308 39.3371 67.8763 40.1016C70.1397 47.1605 72.1525 54.7465 73.6558 61.6477C72.4827 62.4546 71.2367 63.2971 69.9145 64.1803C63.3021 68.5912 57.0858 72.3885 54.3112 74.0566C51.5535 72.3682 45.366 68.5217 38.784 64.0684C37.4669 63.1768 36.2278 62.3241 35.058 61.5087C36.6087 54.6261 38.674 47.0604 40.9848 40.0236C41.3217 38.998 41.6636 37.9826 42.0124 36.9824C42.0174 36.9689 42.0208 36.957 42.0259 36.9435L42.7318 35.0347C42.7217 35.0347 42.7115 35.033 42.7014 35.033C44.4789 30.0965 46.3529 25.6042 48.2202 22.0409H48.2185ZM75.9243 74.3431C75.9802 74.7923 76.0411 75.2297 76.0987 75.6586C76.5642 79.1286 76.6776 80.6492 75.8938 81.6036C74.8273 82.1834 71.836 82.8411 64.433 79.6948C62.5285 78.8862 60.7154 77.8149 59.2358 77.0232C62.9178 74.772 68.7549 71.1239 74.7528 67.0554C75.2454 69.6796 75.6416 72.1376 75.9226 74.3448L75.9243 74.3431ZM49.219 77.0758C43.0044 80.3322 34.1099 84.077 32.4763 81.1527C31.9261 80.178 32.0717 78.6353 32.5152 75.4992C32.5762 75.0754 32.6371 74.638 32.6981 74.1837C32.9927 72.0037 33.4023 69.5762 33.9051 66.9859C39.8184 71.1052 45.5657 74.8025 49.219 77.0741V77.0758ZM22.2157 41.924C26.3684 41.2069 31.0441 40.7136 35.5489 40.3712C33.663 46.2976 31.96 52.497 30.5871 58.3166C22.1497 52.1325 18.6471 48.5539 17.2268 46.5434C16.6156 45.6755 16.2838 44.6583 16.4227 44.0667C16.4497 43.9447 16.5259 43.6293 17.1845 43.2717C18.2374 42.719 20.0336 42.3003 22.2157 41.924ZM29.3749 63.7667C28.6352 67.3148 28.0511 70.6187 27.6617 73.504C27.6025 73.9447 27.5415 74.3719 27.484 74.7838C27.4704 74.8754 27.4586 74.9652 27.445 75.0551C23.6428 69.0337 20.2841 60.9832 18.2357 54.9482C21.3557 57.7419 25.2866 60.7933 29.3733 63.765L29.3749 63.7667ZM54.9765 85.0008V84.972C54.8665 84.972 54.6396 84.9754 54.3129 84.9822C54.2976 84.9822 54.2841 84.9822 54.2689 84.9822C54.2536 84.9822 54.2401 84.9822 54.2265 84.9822C53.9015 84.9737 53.6747 84.9686 53.5629 84.9686V84.9974C50.0959 85.0602 47.2112 84.9907 44.8175 84.8364C45.2593 84.6652 45.7062 84.4872 46.1633 84.2956C49.5406 82.8835 52.5523 81.251 54.2909 80.2543C56.0261 81.2663 59.0191 82.9174 62.3863 84.3533C62.8417 84.5482 63.2886 84.7296 63.7287 84.9042C61.3333 85.0432 58.4469 85.0907 54.9782 85.0008H54.9765ZM81.1672 75.2466C81.1519 75.1568 81.1418 75.0669 81.1282 74.9771C81.0758 74.5668 81.0199 74.138 80.9606 73.6972C80.5916 70.7967 80.0279 67.4707 79.3084 63.8989C83.4289 60.9781 87.3868 57.9742 90.517 55.211C88.428 61.2307 85.01 69.2524 81.1672 75.2466Z" fill="#477ABD"/>
<path d="M119.178 44.3731V52.3118H128.907C129.687 52.3118 130.341 52.5593 130.865 53.056C131.39 53.5527 131.654 54.1918 131.654 54.9733C131.654 55.6344 131.392 56.2209 130.865 56.7329C130.339 57.2448 129.687 57.4991 128.907 57.4991H119.178V68.0094C119.178 68.7909 118.9 69.4452 118.345 69.9707C117.789 70.4979 117.136 70.7607 116.386 70.7607C115.545 70.7607 114.862 70.5064 114.336 69.9945C113.81 69.4842 113.547 68.8214 113.547 68.0094V41.9388C113.547 41.1573 113.81 40.503 114.336 39.9775C114.862 39.452 115.514 39.1875 116.295 39.1875H130.933C131.714 39.1875 132.367 39.435 132.892 39.9317C133.417 40.4284 133.681 41.0675 133.681 41.849C133.681 42.5101 133.417 43.0966 132.892 43.6086C132.365 44.1205 131.714 44.3748 130.933 44.3748H119.176L119.178 44.3731Z" fill="#477ABD"/>
<path d="M156.248 46.9459C156.758 47.4579 157.014 48.119 157.014 48.931V68.0105C157.014 68.792 156.758 69.4464 156.248 69.9719C155.737 70.4991 155.092 70.7619 154.312 70.7619C153.531 70.7619 152.893 70.5076 152.397 69.9956C151.901 69.4854 151.639 68.8378 151.608 68.0563C150.857 68.9293 149.844 69.6735 148.568 70.2889C147.291 70.9043 145.947 71.2145 144.537 71.2145C142.465 71.2145 140.587 70.6805 138.906 69.6125C137.224 68.5462 135.895 67.0646 134.92 65.1694C133.943 63.2758 133.455 61.1246 133.455 58.7191C133.455 56.3136 133.934 54.1556 134.896 52.2468C135.856 50.338 137.171 48.8496 138.837 47.7817C140.503 46.7154 142.343 46.1797 144.354 46.1797C145.795 46.1797 147.147 46.4424 148.409 46.9697C149.67 47.4969 150.736 48.1648 151.606 48.9768V48.931C151.606 48.1495 151.86 47.4952 152.372 46.9697C152.881 46.4441 153.528 46.1797 154.308 46.1797C155.089 46.1797 155.734 46.4357 156.245 46.9459H156.248ZM149.988 64.1082C151.219 62.6808 151.835 60.8839 151.835 58.7191C151.835 56.5543 151.219 54.7506 149.988 53.3063C148.756 51.8637 147.166 51.1416 145.214 51.1416C143.262 51.1416 141.715 51.8637 140.484 53.3063C139.252 54.749 138.637 56.5543 138.637 58.7191C138.637 60.8839 139.245 62.6808 140.462 64.1082C141.678 65.5372 143.262 66.2509 145.214 66.2509C147.166 66.2509 148.757 65.5372 149.988 64.1082Z" fill="#477ABD"/>
<path d="M160.347 43.2018C159.926 42.8713 159.716 42.2847 159.716 41.4422V40.5844C159.716 39.7436 159.941 39.1571 160.391 38.8248C160.841 38.4943 161.563 38.3281 162.553 38.3281C163.604 38.3281 164.339 38.4943 164.76 38.8248C165.18 39.1554 165.39 39.7419 165.39 40.5844V41.4422C165.39 42.3152 165.172 42.9086 164.737 43.2239C164.302 43.5392 163.558 43.6968 162.507 43.6968C161.456 43.6968 160.765 43.5324 160.345 43.2001L160.347 43.2018ZM164.491 69.9708C163.98 70.498 163.335 70.7608 162.555 70.7608C161.774 70.7608 161.127 70.498 160.618 69.9708C160.107 69.4453 159.853 68.791 159.853 68.0095V49.3809C159.853 48.5994 160.107 47.945 160.618 47.4195C161.127 46.894 161.774 46.6295 162.555 46.6295C163.335 46.6295 163.98 46.8923 164.491 47.4195C165.001 47.9467 165.256 48.5994 165.256 49.3809V68.0095C165.256 68.791 165.001 69.4453 164.491 69.9708Z" fill="#477ABD"/>
<path d="M182.89 46.9476C183.504 47.4596 183.812 48.0597 183.812 48.7513C183.812 49.6837 183.572 50.3821 183.091 50.8483C182.61 51.3145 182.04 51.5467 181.38 51.5467C180.929 51.5467 180.418 51.4416 179.847 51.2314C179.758 51.2026 179.555 51.1416 179.24 51.0517C178.925 50.9619 178.586 50.9161 178.226 50.9161C177.445 50.9161 176.694 51.1568 175.974 51.6383C175.253 52.1197 174.66 52.8486 174.195 53.8251C173.729 54.8032 173.497 55.9678 173.497 57.3206V68.0105C173.497 68.792 173.242 69.4464 172.732 69.9719C172.221 70.4991 171.576 70.7619 170.796 70.7619C170.015 70.7619 169.368 70.4991 168.859 69.9719C168.348 69.4464 168.094 68.792 168.094 68.0105V49.3819C168.094 48.6004 168.348 47.9461 168.859 47.4206C169.368 46.8951 170.015 46.6306 170.796 46.6306C171.576 46.6306 172.221 46.8934 172.732 47.4206C173.242 47.9478 173.497 48.6004 173.497 49.3819V49.9685C174.188 48.7361 175.179 47.7969 176.47 47.1493C177.76 46.5035 179.143 46.1797 180.614 46.1797C181.515 46.1797 182.273 46.4357 182.89 46.9459V46.9476Z" fill="#477ABD"/>
<path d="M208.203 56.1463C209.209 57.4398 209.712 59.1079 209.712 61.1523C209.712 64.7309 208.691 67.2262 206.649 68.64C204.608 70.0538 202.175 70.7607 199.353 70.7607H188.137C187.357 70.7607 186.704 70.4979 186.179 69.9707C185.652 69.4452 185.39 68.7909 185.39 68.0094V41.9388C185.39 41.1573 185.652 40.503 186.179 39.9775C186.705 39.452 187.357 39.1875 188.137 39.1875H199.488C205.193 39.1875 208.046 41.8642 208.046 47.216C208.046 48.5688 207.722 49.7639 207.077 50.8014C206.431 51.8388 205.508 52.6576 204.308 53.2594C205.899 53.8917 207.198 54.8529 208.205 56.1463H208.203ZM201.266 45.4343C200.65 44.819 199.786 44.5104 198.676 44.5104H191.244V51.5472H198.811C199.712 51.5472 200.501 51.2472 201.176 50.6454C201.852 50.0436 202.19 49.2316 202.19 48.2094C202.19 46.977 201.882 46.0514 201.266 45.436V45.4343ZM202.662 64.4461C203.458 63.6951 203.856 62.5966 203.856 61.154C203.856 59.3808 203.39 58.223 202.459 57.6805C201.528 57.1397 200.387 56.8685 199.036 56.8685H191.244V65.5734H199.351C200.761 65.5734 201.865 65.197 202.662 64.4461Z" fill="#F68C1F"/>
<path d="M233.18 46.9459C233.69 47.4579 233.945 48.119 233.945 48.931V68.0105C233.945 68.792 233.69 69.4464 233.18 69.9719C232.669 70.4991 232.024 70.7619 231.244 70.7619C230.463 70.7619 229.825 70.5076 229.329 69.9956C228.833 69.4854 228.571 68.8378 228.54 68.0563C227.788 68.9293 226.776 69.6735 225.5 70.2889C224.223 70.9043 222.879 71.2145 221.469 71.2145C219.397 71.2145 217.519 70.6805 215.838 69.6125C214.156 68.5462 212.827 67.0646 211.852 65.1694C210.875 63.2758 210.387 61.1246 210.387 58.7191C210.387 56.3136 210.866 54.1556 211.828 52.2468C212.788 50.338 214.103 48.8496 215.769 47.7817C217.435 46.7154 219.275 46.1797 221.286 46.1797C222.727 46.1797 224.079 46.4424 225.341 46.9697C226.602 47.4969 227.668 48.1648 228.538 48.9768V48.931C228.538 48.1495 228.792 47.4952 229.304 46.9697C229.813 46.4441 230.46 46.1797 231.24 46.1797C232.021 46.1797 232.666 46.4357 233.177 46.9459H233.18ZM226.92 64.1082C228.151 62.6808 228.767 60.8839 228.767 58.7191C228.767 56.5543 228.151 54.7506 226.92 53.3063C225.688 51.8637 224.098 51.1416 222.146 51.1416C220.194 51.1416 218.647 51.8637 217.416 53.3063C216.184 54.749 215.569 56.5543 215.569 58.7191C215.569 60.8839 216.177 62.6808 217.394 64.1082C218.61 65.5372 220.194 66.2509 222.146 66.2509C224.098 66.2509 225.689 65.5372 226.92 64.1082Z" fill="#F68C1F"/>
<path d="M256.378 47.4211C256.888 47.9483 257.143 48.6009 257.143 49.3824V68.5518C257.143 72.461 256.092 75.3106 253.989 77.099C251.887 78.8875 249.08 79.7826 245.567 79.7826C244.546 79.7826 243.502 79.6995 242.437 79.5351C241.371 79.3689 240.507 79.1519 239.847 78.8807C238.376 78.2484 237.639 77.3771 237.639 76.265C237.639 76.0548 237.685 75.8141 237.775 75.5428C237.954 74.8817 238.262 74.3765 238.699 74.0324C239.134 73.6866 239.606 73.5137 240.118 73.5137C240.417 73.5137 240.703 73.5595 240.974 73.6493C241.184 73.7391 241.552 73.89 242.078 74.1002C242.603 74.3104 243.16 74.4833 243.744 74.619C244.33 74.7546 244.937 74.8224 245.569 74.8224C247.7 74.8224 249.269 74.363 250.275 73.4459C251.281 72.5288 251.783 70.9573 251.783 68.7332V68.2823C250.221 70.2369 247.79 71.2133 244.487 71.2133C242.925 71.2133 241.543 70.8454 240.343 70.108C239.141 69.3723 238.21 68.3484 237.55 67.0414C236.889 65.7327 236.559 64.2375 236.559 62.5542V49.3841C236.559 48.6026 236.813 47.9483 237.324 47.4228C237.834 46.8973 238.481 46.6328 239.261 46.6328C240.042 46.6328 240.687 46.8956 241.198 47.4228C241.707 47.95 241.963 48.6026 241.963 49.3841V60.9302C241.963 62.8237 242.376 64.185 243.202 65.0122C244.028 65.8395 245.235 66.2531 246.828 66.2531C248.421 66.2531 249.598 65.7954 250.455 64.8766C251.311 63.9595 251.738 62.644 251.738 60.9302V49.3841C251.738 48.6026 251.993 47.9483 252.503 47.4228C253.013 46.8973 253.659 46.6328 254.44 46.6328C255.22 46.6328 255.865 46.8956 256.376 47.4228L256.378 47.4211Z" fill="#F68C1F"/>
</svg>
