<svg width="60" height="61" viewBox="0 0 60 61" fill="none" xmlns="http://www.w3.org/2000/svg">
<path opacity="0.21" fill-rule="evenodd" clip-rule="evenodd" d="M0 30.5V55.5C0 58.2614 2.23858 60.5 5 60.5H30H55C57.7614 60.5 60 58.2614 60 55.5V30.5V5.5C60 2.73858 57.7614 0.5 55 0.5H30H5C2.23858 0.5 0 2.73858 0 5.5V30.5Z" fill="#F68C1E"/>
<mask id="mask0_535_39286" style="mask-type:luminance" maskUnits="userSpaceOnUse" x="21" y="19" width="18" height="23">
<path d="M34.525 22H37C37.2652 22 37.5196 22.1054 37.7071 22.2929C37.8946 22.4804 38 22.7348 38 23V39.5C38 39.7652 37.8946 40.0196 37.7071 40.2071C37.5196 40.3946 37.2652 40.5 37 40.5H23C22.7348 40.5 22.4804 40.3946 22.2929 40.2071C22.1054 40.0196 22 39.7652 22 39.5V23C22 22.7348 22.1054 22.4804 22.2929 22.2929C22.4804 22.1054 22.7348 22 23 22H26.5V23.5H33.5V22H34.525Z" fill="#555555" stroke="white" stroke-width="2" stroke-linejoin="round"/>
<path d="M31.5 28L27.5 32.0005H32.502L28.5 36.0005M26.5 20.5H33.5V23.5H26.5V20.5Z" stroke="white" stroke-width="2" stroke-linecap="round" stroke-linejoin="round"/>
</mask>
<g mask="url(#mask0_535_39286)">
<path d="M18 18.5H42V42.5H18V18.5Z" fill="#F68C1E"/>
</g>
</svg>
