<svg width="60" height="60" viewBox="0 0 60 60" fill="none" xmlns="http://www.w3.org/2000/svg">
<path opacity="0.21" fill-rule="evenodd" clip-rule="evenodd" d="M0 30V55C0 57.7614 2.23858 60 5 60H30H55C57.7614 60 60 57.7614 60 55V30V5C60 2.23858 57.7614 0 55 0H30H5C2.23858 0 0 2.23858 0 5V30Z" fill="#F68C1E"/>
<mask id="mask0_911_75018" style="mask-type:luminance" maskUnits="userSpaceOnUse" x="21" y="19" width="18" height="22">
<path d="M34.525 21.5H37C37.2652 21.5 37.5196 21.6054 37.7071 21.7929C37.8946 21.9804 38 22.2348 38 22.5V39C38 39.2652 37.8946 39.5196 37.7071 39.7071C37.5196 39.8946 37.2652 40 37 40H23C22.7348 40 22.4804 39.8946 22.2929 39.7071C22.1054 39.5196 22 39.2652 22 39V22.5C22 22.2348 22.1054 21.9804 22.2929 21.7929C22.4804 21.6054 22.7348 21.5 23 21.5H26.5V23H33.5V21.5H34.525Z" fill="#555555" stroke="white" stroke-width="2" stroke-linejoin="round"/>
<path d="M31.5 27.5L27.5 31.5005H32.502L28.5 35.5005M26.5 20H33.5V23H26.5V20Z" stroke="white" stroke-width="2" stroke-linecap="round" stroke-linejoin="round"/>
</mask>
<g mask="url(#mask0_911_75018)">
<path d="M18 18H42V42H18V18Z" fill="#F68C1E"/>
</g>
</svg>
