<svg width="288" height="85" viewBox="0 0 288 85" fill="none" xmlns="http://www.w3.org/2000/svg">
<rect x="0.75" width="286.75" height="85" rx="5" fill="white"/>
<path d="M15.694 26C15.438 26 15.23 25.9253 15.07 25.776C14.9207 25.616 14.846 25.4187 14.846 25.184V15.6H16.558V25.184C16.558 25.4187 16.4727 25.616 16.302 25.776C16.142 25.9253 15.9393 26 15.694 26ZM12.062 16.336C11.838 16.336 11.646 16.2667 11.486 16.128C11.326 15.9787 11.246 15.7867 11.246 15.552C11.246 15.328 11.326 15.1467 11.486 15.008C11.646 14.8693 11.838 14.8 12.062 14.8H19.342C19.566 14.8 19.7527 14.8747 19.902 15.024C20.062 15.1627 20.142 15.344 20.142 15.568C20.142 15.8027 20.062 15.9893 19.902 16.128C19.7527 16.2667 19.566 16.336 19.342 16.336H12.062ZM27.9184 21.792C27.9184 22.6453 27.7317 23.4027 27.3584 24.064C26.985 24.7147 26.4784 25.2267 25.8384 25.6C25.1984 25.9733 24.4784 26.16 23.6784 26.16C22.8784 26.16 22.1584 25.9733 21.5184 25.6C20.8784 25.2267 20.3664 24.7147 19.9824 24.064C19.609 23.4027 19.4224 22.6453 19.4224 21.792C19.4224 20.928 19.609 20.1707 19.9824 19.52C20.3664 18.8587 20.8784 18.3413 21.5184 17.968C22.1584 17.584 22.8784 17.392 23.6784 17.392C24.4784 17.392 25.1984 17.584 25.8384 17.968C26.4784 18.3413 26.985 18.8587 27.3584 19.52C27.7317 20.1707 27.9184 20.928 27.9184 21.792ZM26.3184 21.792C26.3184 21.2053 26.201 20.6987 25.9664 20.272C25.7317 19.8347 25.4117 19.4933 25.0064 19.248C24.6117 18.992 24.169 18.864 23.6784 18.864C23.1877 18.864 22.7397 18.992 22.3344 19.248C21.929 19.4933 21.609 19.8347 21.3744 20.272C21.1397 20.6987 21.0224 21.2053 21.0224 21.792C21.0224 22.3573 21.1397 22.8587 21.3744 23.296C21.609 23.7333 21.929 24.0747 22.3344 24.32C22.7397 24.5653 23.1877 24.688 23.6784 24.688C24.169 24.688 24.6117 24.5653 25.0064 24.32C25.4117 24.0747 25.7317 23.7333 25.9664 23.296C26.201 22.8587 26.3184 22.3573 26.3184 21.792ZM29.6174 17.68H33.3774C33.5907 17.68 33.7667 17.7547 33.9054 17.904C34.0547 18.0427 34.1294 18.2187 34.1294 18.432C34.1294 18.6347 34.0547 18.8053 33.9054 18.944C33.7667 19.0827 33.5907 19.152 33.3774 19.152H29.6174C29.404 19.152 29.2227 19.0827 29.0734 18.944C28.9347 18.7947 28.8654 18.6187 28.8654 18.416C28.8654 18.2027 28.9347 18.0267 29.0734 17.888C29.2227 17.7493 29.404 17.68 29.6174 17.68ZM31.2974 15.6C31.532 15.6 31.724 15.68 31.8734 15.84C32.0227 15.9893 32.0974 16.1813 32.0974 16.416V23.84C32.0974 24.032 32.1294 24.1867 32.1934 24.304C32.2574 24.4213 32.3427 24.5013 32.4494 24.544C32.5667 24.5867 32.684 24.608 32.8014 24.608C32.9187 24.608 33.02 24.5867 33.1054 24.544C33.2014 24.5013 33.3134 24.48 33.4414 24.48C33.5694 24.48 33.6867 24.5387 33.7934 24.656C33.9 24.7733 33.9534 24.9333 33.9534 25.136C33.9534 25.392 33.8147 25.6 33.5374 25.76C33.26 25.92 32.9614 26 32.6414 26C32.46 26 32.2467 25.984 32.0014 25.952C31.756 25.92 31.516 25.84 31.2814 25.712C31.0574 25.584 30.8707 25.3813 30.7214 25.104C30.572 24.816 30.4974 24.416 30.4974 23.904V16.416C30.4974 16.1813 30.572 15.9893 30.7214 15.84C30.8814 15.68 31.0734 15.6 31.2974 15.6ZM42.7973 17.456C43.0319 17.456 43.2239 17.536 43.3733 17.696C43.5226 17.8453 43.5972 18.0373 43.5972 18.272V25.184C43.5972 25.4187 43.5226 25.616 43.3733 25.776C43.2239 25.9253 43.0319 26 42.7973 26C42.5733 26 42.3813 25.9253 42.2213 25.776C42.0719 25.616 41.9973 25.4187 41.9973 25.184V24.032L42.3333 24.08C42.3333 24.272 42.2533 24.4853 42.0933 24.72C41.9439 24.9547 41.7359 25.184 41.4693 25.408C41.2026 25.6213 40.8879 25.8027 40.5253 25.952C40.1626 26.0907 39.7733 26.16 39.3573 26.16C38.6213 26.16 37.9599 25.9733 37.3733 25.6C36.7866 25.216 36.3226 24.6933 35.9813 24.032C35.6399 23.3707 35.4693 22.6187 35.4693 21.776C35.4693 20.912 35.6399 20.1547 35.9813 19.504C36.3226 18.8427 36.7813 18.3253 37.3573 17.952C37.9439 17.5787 38.5946 17.392 39.3093 17.392C39.7679 17.392 40.1893 17.4667 40.5733 17.616C40.9679 17.7653 41.3093 17.9573 41.5973 18.192C41.8853 18.4267 42.1039 18.6773 42.2533 18.944C42.4133 19.2 42.4933 19.4453 42.4933 19.68L41.9973 19.728V18.272C41.9973 18.048 42.0719 17.856 42.2213 17.696C42.3813 17.536 42.5733 17.456 42.7973 17.456ZM39.5333 24.688C40.0346 24.688 40.4773 24.56 40.8613 24.304C41.2453 24.048 41.5439 23.7013 41.7573 23.264C41.9706 22.816 42.0773 22.32 42.0773 21.776C42.0773 21.2213 41.9706 20.7253 41.7573 20.288C41.5439 19.8507 41.2453 19.504 40.8613 19.248C40.4773 18.992 40.0346 18.864 39.5333 18.864C39.0426 18.864 38.6053 18.992 38.2213 19.248C37.8479 19.504 37.5493 19.8507 37.3253 20.288C37.1119 20.7253 37.0053 21.2213 37.0053 21.776C37.0053 22.32 37.1119 22.816 37.3253 23.264C37.5493 23.7013 37.8479 24.048 38.2213 24.304C38.6053 24.56 39.0426 24.688 39.5333 24.688ZM47.5668 25.184C47.5668 25.4187 47.4868 25.616 47.3268 25.776C47.1774 25.9253 46.9908 26 46.7668 26C46.5428 26 46.3508 25.9253 46.1908 25.776C46.0414 25.616 45.9668 25.4187 45.9668 25.184V14.976C45.9668 14.7413 46.0468 14.5493 46.2068 14.4C46.3668 14.24 46.5588 14.16 46.7828 14.16C47.0174 14.16 47.2041 14.24 47.3428 14.4C47.4921 14.5493 47.5668 14.7413 47.5668 14.976V25.184ZM59.0893 14.8C59.6546 14.8 60.1773 14.9547 60.6573 15.264C61.1373 15.5627 61.5213 15.9733 61.8093 16.496C62.0973 17.0187 62.2413 17.6053 62.2413 18.256C62.2413 18.9067 62.0973 19.4987 61.8093 20.032C61.5213 20.5547 61.1373 20.976 60.6573 21.296C60.1773 21.6053 59.6546 21.76 59.0893 21.76H56.0013L56.1293 21.504V25.184C56.1293 25.4187 56.0546 25.616 55.9053 25.776C55.7666 25.9253 55.5799 26 55.3453 26C55.1213 26 54.9346 25.9253 54.7853 25.776C54.6466 25.616 54.5773 25.4187 54.5773 25.184V15.616C54.5773 15.3813 54.6573 15.1893 54.8173 15.04C54.9773 14.88 55.1693 14.8 55.3932 14.8H59.0893ZM59.0893 20.224C59.3666 20.224 59.6173 20.1333 59.8413 19.952C60.0759 19.7707 60.2626 19.5307 60.4013 19.232C60.5506 18.9333 60.6253 18.608 60.6253 18.256C60.6253 17.904 60.5506 17.584 60.4013 17.296C60.2626 17.008 60.0759 16.7787 59.8413 16.608C59.6173 16.4267 59.3666 16.336 59.0893 16.336H55.9693L56.1293 16.096V20.432L55.9853 20.224H59.0893ZM64.8106 26C64.576 26 64.384 25.9253 64.2346 25.776C64.0853 25.616 64.0106 25.4187 64.0106 25.184V18.4C64.0106 18.1653 64.0853 17.9733 64.2346 17.824C64.384 17.664 64.576 17.584 64.8106 17.584C65.0346 17.584 65.2213 17.664 65.3706 17.824C65.5306 17.9733 65.6106 18.1653 65.6106 18.4V20.192L65.4506 19.504C65.536 19.2053 65.664 18.928 65.8346 18.672C66.016 18.416 66.2293 18.192 66.4746 18C66.72 17.808 66.992 17.6587 67.2906 17.552C67.6 17.4453 67.92 17.392 68.2506 17.392C68.528 17.392 68.768 17.4667 68.9706 17.616C69.1733 17.7653 69.2746 17.952 69.2746 18.176C69.2746 18.464 69.2 18.6773 69.0506 18.816C68.9013 18.944 68.736 19.008 68.5546 19.008C68.3946 19.008 68.24 18.976 68.0906 18.912C67.9413 18.8373 67.7653 18.8 67.5626 18.8C67.3386 18.8 67.1093 18.8587 66.8746 18.976C66.64 19.0933 66.4266 19.2693 66.2346 19.504C66.0426 19.728 65.888 19.9947 65.7706 20.304C65.664 20.6133 65.6106 20.96 65.6106 21.344V25.184C65.6106 25.4187 65.5306 25.616 65.3706 25.776C65.2213 25.9253 65.0346 26 64.8106 26ZM78.4028 21.792C78.4028 22.6453 78.2161 23.4027 77.8428 24.064C77.4694 24.7147 76.9628 25.2267 76.3228 25.6C75.6828 25.9733 74.9628 26.16 74.1628 26.16C73.3628 26.16 72.6428 25.9733 72.0028 25.6C71.3628 25.2267 70.8508 24.7147 70.4668 24.064C70.0934 23.4027 69.9068 22.6453 69.9068 21.792C69.9068 20.928 70.0934 20.1707 70.4668 19.52C70.8508 18.8587 71.3628 18.3413 72.0028 17.968C72.6428 17.584 73.3628 17.392 74.1628 17.392C74.9628 17.392 75.6828 17.584 76.3228 17.968C76.9628 18.3413 77.4694 18.8587 77.8428 19.52C78.2161 20.1707 78.4028 20.928 78.4028 21.792ZM76.8028 21.792C76.8028 21.2053 76.6854 20.6987 76.4508 20.272C76.2161 19.8347 75.8961 19.4933 75.4908 19.248C75.0961 18.992 74.6534 18.864 74.1628 18.864C73.6721 18.864 73.2241 18.992 72.8188 19.248C72.4134 19.4933 72.0934 19.8347 71.8588 20.272C71.6241 20.6987 71.5068 21.2053 71.5068 21.792C71.5068 22.3573 71.6241 22.8587 71.8588 23.296C72.0934 23.7333 72.4134 24.0747 72.8188 24.32C73.2241 24.5653 73.6721 24.688 74.1628 24.688C74.6534 24.688 75.0961 24.5653 75.4908 24.32C75.8961 24.0747 76.2161 23.7333 76.4508 23.296C76.6854 22.8587 76.8028 22.3573 76.8028 21.792ZM84.1338 14.176C84.3364 14.176 84.5444 14.2027 84.7578 14.256C84.9711 14.3093 85.1471 14.4 85.2858 14.528C85.4351 14.6453 85.5098 14.8107 85.5098 15.024C85.5098 15.2373 85.4458 15.4133 85.3178 15.552C85.1898 15.68 85.0404 15.744 84.8698 15.744C84.7631 15.744 84.6191 15.7227 84.4378 15.68C84.2564 15.6267 84.0751 15.6 83.8938 15.6C83.6484 15.6 83.4511 15.6587 83.3018 15.776C83.1524 15.8827 83.0458 16.0213 82.9818 16.192C82.9178 16.352 82.8858 16.512 82.8858 16.672V25.184C82.8858 25.4187 82.8058 25.616 82.6458 25.776C82.4964 25.9253 82.3098 26 82.0858 26C81.8511 26 81.6591 25.9253 81.5098 25.776C81.3604 25.616 81.2858 25.4187 81.2858 25.184V16.688C81.2858 15.952 81.5258 15.3493 82.0058 14.88C82.4964 14.4107 83.2058 14.176 84.1338 14.176ZM84.4538 17.728C84.6671 17.728 84.8431 17.7973 84.9818 17.936C85.1204 18.0747 85.1898 18.2507 85.1898 18.464C85.1898 18.6773 85.1204 18.8533 84.9818 18.992C84.8431 19.1307 84.6671 19.2 84.4538 19.2H80.3098C80.1071 19.2 79.9311 19.1307 79.7818 18.992C79.6431 18.8533 79.5738 18.6773 79.5738 18.464C79.5738 18.2507 79.6431 18.0747 79.7818 17.936C79.9311 17.7973 80.1071 17.728 80.3098 17.728H84.4538ZM88.2938 25.184C88.2938 25.4187 88.2191 25.616 88.0698 25.776C87.9204 25.9253 87.7284 26 87.4938 26C87.2698 26 87.0778 25.9253 86.9178 25.776C86.7684 25.616 86.6938 25.4187 86.6938 25.184V18.336C86.6938 18.1013 86.7684 17.9093 86.9178 17.76C87.0778 17.6 87.2698 17.52 87.4938 17.52C87.7284 17.52 87.9204 17.6 88.0698 17.76C88.2191 17.9093 88.2938 18.1013 88.2938 18.336V25.184ZM87.4938 16.464C87.1844 16.464 86.9604 16.4107 86.8218 16.304C86.6831 16.1867 86.6138 15.9947 86.6138 15.728V15.472C86.6138 15.2053 86.6884 15.0187 86.8378 14.912C86.9871 14.8053 87.2111 14.752 87.5098 14.752C87.8298 14.752 88.0591 14.8107 88.1978 14.928C88.3364 15.0347 88.4058 15.216 88.4058 15.472V15.728C88.4058 16.0053 88.3311 16.1973 88.1818 16.304C88.0431 16.4107 87.8138 16.464 87.4938 16.464ZM90.3361 17.68H94.0961C94.3095 17.68 94.4855 17.7547 94.6241 17.904C94.7735 18.0427 94.8481 18.2187 94.8481 18.432C94.8481 18.6347 94.7735 18.8053 94.6241 18.944C94.4855 19.0827 94.3095 19.152 94.0961 19.152H90.3361C90.1228 19.152 89.9415 19.0827 89.7921 18.944C89.6535 18.7947 89.5841 18.6187 89.5841 18.416C89.5841 18.2027 89.6535 18.0267 89.7921 17.888C89.9415 17.7493 90.1228 17.68 90.3361 17.68ZM92.0161 15.6C92.2508 15.6 92.4428 15.68 92.5921 15.84C92.7415 15.9893 92.8161 16.1813 92.8161 16.416V23.84C92.8161 24.032 92.8481 24.1867 92.9121 24.304C92.9761 24.4213 93.0615 24.5013 93.1681 24.544C93.2855 24.5867 93.4028 24.608 93.5201 24.608C93.6375 24.608 93.7388 24.5867 93.8241 24.544C93.9201 24.5013 94.0321 24.48 94.1601 24.48C94.2881 24.48 94.4055 24.5387 94.5121 24.656C94.6188 24.7733 94.6721 24.9333 94.6721 25.136C94.6721 25.392 94.5335 25.6 94.2561 25.76C93.9788 25.92 93.6801 26 93.3601 26C93.1788 26 92.9655 25.984 92.7201 25.952C92.4748 25.92 92.2348 25.84 92.0001 25.712C91.7761 25.584 91.5895 25.3813 91.4401 25.104C91.2908 24.816 91.2161 24.416 91.2161 23.904V16.416C91.2161 16.1813 91.2908 15.9893 91.4401 15.84C91.6001 15.68 91.7921 15.6 92.0161 15.6Z" fill="#202224"/>
<path d="M14.866 68C14.3433 68 13.8767 67.8413 13.466 67.524C13.0553 67.188 12.85 66.7773 12.85 66.292V50.108C12.85 49.6227 13.0087 49.2213 13.326 48.904C13.662 48.568 14.0727 48.4 14.558 48.4H22.622C23.5927 48.4 24.498 48.6613 25.338 49.184C26.1967 49.688 26.8873 50.3973 27.41 51.312C27.9327 52.208 28.194 53.244 28.194 54.42C28.194 55.1293 28.0447 55.82 27.746 56.492C27.466 57.164 27.074 57.7707 26.57 58.312C26.0847 58.8533 25.534 59.2733 24.918 59.572L24.946 58.928C25.4687 59.208 25.898 59.544 26.234 59.936C26.5887 60.3093 26.8593 60.72 27.046 61.168C27.2513 61.5973 27.3727 62.064 27.41 62.568C27.4847 63.0347 27.5313 63.4453 27.55 63.8C27.5873 64.1547 27.6433 64.4533 27.718 64.696C27.8113 64.9387 27.9793 65.1253 28.222 65.256C28.6327 65.4987 28.8847 65.8533 28.978 66.32C29.09 66.768 28.9873 67.1693 28.67 67.524C28.4647 67.7667 28.2033 67.9253 27.886 68C27.5687 68.056 27.2513 68.056 26.934 68C26.6167 67.9253 26.3553 67.832 26.15 67.72C25.8327 67.5333 25.5153 67.2627 25.198 66.908C24.8807 66.5347 24.6193 66.04 24.414 65.424C24.2273 64.808 24.134 64.0147 24.134 63.044C24.134 62.7267 24.078 62.4373 23.966 62.176C23.854 61.896 23.6953 61.6627 23.49 61.476C23.2847 61.2707 23.0233 61.1213 22.706 61.028C22.3887 60.916 22.0153 60.86 21.586 60.86H15.93L16.35 60.216V66.292C16.35 66.7773 16.2193 67.188 15.958 67.524C15.6967 67.8413 15.3327 68 14.866 68ZM15.958 57.976H22.482C22.818 57.976 23.1447 57.8267 23.462 57.528C23.7793 57.2107 24.0407 56.7907 24.246 56.268C24.4513 55.7267 24.554 55.1387 24.554 54.504C24.554 53.6827 24.33 53.0013 23.882 52.46C23.4527 51.9 22.986 51.62 22.482 51.62H16.014L16.35 50.724V58.648L15.958 57.976ZM31.9247 65.676C31.738 65.4147 31.654 65.0787 31.6727 64.668C31.6913 64.2573 31.934 63.9027 32.4007 63.604C32.6993 63.4173 33.0167 63.3427 33.3527 63.38C33.6887 63.3987 34.0153 63.5667 34.3327 63.884C34.874 64.4253 35.4433 64.8453 36.0407 65.144C36.638 65.4427 37.3847 65.592 38.2807 65.592C38.5607 65.5733 38.8687 65.536 39.2047 65.48C39.5407 65.4053 39.83 65.256 40.0727 65.032C40.334 64.7893 40.4647 64.4253 40.4647 63.94C40.4647 63.5293 40.3247 63.2027 40.0447 62.96C39.7647 62.7173 39.3913 62.512 38.9247 62.344C38.4767 62.176 37.9727 62.0173 37.4127 61.868C36.834 61.7 36.2367 61.5133 35.6207 61.308C35.0233 61.1027 34.4727 60.8413 33.9687 60.524C33.4647 60.188 33.054 59.7493 32.7367 59.208C32.4193 58.6667 32.2607 57.9853 32.2607 57.164C32.2607 56.2307 32.522 55.4373 33.0447 54.784C33.5673 54.1307 34.2393 53.6267 35.0607 53.272C35.9007 52.9173 36.778 52.74 37.6927 52.74C38.2713 52.74 38.878 52.8147 39.5127 52.964C40.1473 53.0947 40.754 53.3187 41.3327 53.636C41.9113 53.9347 42.3967 54.336 42.7887 54.84C42.994 55.12 43.1153 55.456 43.1527 55.848C43.19 56.24 43.0127 56.5947 42.6207 56.912C42.3407 57.136 42.014 57.2387 41.6407 57.22C41.2673 57.1827 40.9593 57.052 40.7167 56.828C40.3993 56.4173 39.97 56.0907 39.4287 55.848C38.906 55.6053 38.2993 55.484 37.6087 55.484C37.3287 55.484 37.0207 55.5213 36.6847 55.596C36.3673 55.652 36.0873 55.792 35.8447 56.016C35.602 56.2213 35.4807 56.5573 35.4807 57.024C35.4807 57.4533 35.6207 57.7987 35.9007 58.06C36.1807 58.3027 36.554 58.508 37.0207 58.676C37.506 58.8253 38.0193 58.9747 38.5607 59.124C39.1207 59.2733 39.69 59.4507 40.2687 59.656C40.8473 59.8613 41.3793 60.132 41.8647 60.468C42.35 60.804 42.742 61.2427 43.0407 61.784C43.3393 62.3067 43.4887 62.9787 43.4887 63.8C43.4887 64.752 43.2087 65.564 42.6487 66.236C42.0887 66.908 41.3887 67.4213 40.5487 67.776C39.7087 68.112 38.85 68.28 37.9727 68.28C36.8713 68.28 35.77 68.0933 34.6687 67.72C33.5673 67.328 32.6527 66.6467 31.9247 65.676ZM48.7845 67.972C48.2431 67.972 47.8231 67.832 47.5245 67.552C47.2445 67.2533 47.1045 66.8333 47.1045 66.292V65.816C47.1045 65.2747 47.2445 64.864 47.5245 64.584C47.8231 64.2853 48.2431 64.136 48.7845 64.136H49.1485C49.6898 64.136 50.1005 64.2853 50.3805 64.584C50.6791 64.864 50.8285 65.2747 50.8285 65.816V66.292C50.8285 66.8333 50.6791 67.2533 50.3805 67.552C50.1005 67.832 49.6898 67.972 49.1485 67.972H48.7845ZM68.9648 68C68.4421 68 68.0128 67.8413 67.6768 67.524C67.3408 67.188 67.1728 66.7773 67.1728 66.292V52.18L67.5648 52.796L65.5208 54.308C65.2594 54.5133 64.9328 54.616 64.5408 54.616C64.0928 54.616 63.7008 54.448 63.3648 54.112C63.0288 53.776 62.8608 53.3747 62.8608 52.908C62.8608 52.3107 63.1501 51.8253 63.7288 51.452L67.7608 48.764C67.9474 48.6333 68.1528 48.54 68.3768 48.484C68.6194 48.428 68.8434 48.4 69.0488 48.4C69.5901 48.4 70.0194 48.568 70.3368 48.904C70.6541 49.2213 70.8128 49.6227 70.8128 50.108V66.292C70.8128 66.7773 70.6354 67.188 70.2808 67.524C69.9448 67.8413 69.5061 68 68.9648 68ZM82.7796 68.28C81.1743 68.28 79.8116 67.86 78.6916 67.02C77.5903 66.1613 76.7503 64.976 76.1716 63.464C75.5929 61.9333 75.3036 60.1787 75.3036 58.2C75.3036 56.2027 75.5929 54.448 76.1716 52.936C76.7503 51.424 77.5903 50.248 78.6916 49.408C79.8116 48.5493 81.1743 48.12 82.7796 48.12C84.3849 48.12 85.7383 48.5493 86.8396 49.408C87.9596 50.248 88.8089 51.424 89.3876 52.936C89.9663 54.448 90.2556 56.2027 90.2556 58.2C90.2556 60.1787 89.9663 61.9333 89.3876 63.464C88.8089 64.976 87.9596 66.1613 86.8396 67.02C85.7383 67.86 84.3849 68.28 82.7796 68.28ZM82.7796 64.92C83.5636 64.92 84.2356 64.6773 84.7956 64.192C85.3743 63.688 85.8223 62.9413 86.1396 61.952C86.4569 60.944 86.6156 59.6933 86.6156 58.2C86.6156 56.688 86.4569 55.4373 86.1396 54.448C85.8223 53.4587 85.3743 52.7213 84.7956 52.236C84.2356 51.732 83.5636 51.48 82.7796 51.48C82.0143 51.48 81.3423 51.732 80.7636 52.236C80.1849 52.7213 79.7369 53.4587 79.4196 54.448C79.1023 55.4373 78.9436 56.688 78.9436 58.2C78.9436 59.6933 79.1023 60.944 79.4196 61.952C79.7369 62.9413 80.1849 63.688 80.7636 64.192C81.3423 64.6773 82.0143 64.92 82.7796 64.92ZM100.979 68.28C99.3735 68.28 98.0108 67.86 96.8908 67.02C95.7895 66.1613 94.9495 64.976 94.3708 63.464C93.7921 61.9333 93.5028 60.1787 93.5028 58.2C93.5028 56.2027 93.7921 54.448 94.3708 52.936C94.9495 51.424 95.7895 50.248 96.8908 49.408C98.0108 48.5493 99.3735 48.12 100.979 48.12C102.584 48.12 103.937 48.5493 105.039 49.408C106.159 50.248 107.008 51.424 107.587 52.936C108.165 54.448 108.455 56.2027 108.455 58.2C108.455 60.1787 108.165 61.9333 107.587 63.464C107.008 64.976 106.159 66.1613 105.039 67.02C103.937 67.86 102.584 68.28 100.979 68.28ZM100.979 64.92C101.763 64.92 102.435 64.6773 102.995 64.192C103.573 63.688 104.021 62.9413 104.339 61.952C104.656 60.944 104.815 59.6933 104.815 58.2C104.815 56.688 104.656 55.4373 104.339 54.448C104.021 53.4587 103.573 52.7213 102.995 52.236C102.435 51.732 101.763 51.48 100.979 51.48C100.213 51.48 99.5415 51.732 98.9628 52.236C98.3841 52.7213 97.9361 53.4587 97.6188 54.448C97.3015 55.4373 97.1428 56.688 97.1428 58.2C97.1428 59.6933 97.3015 60.944 97.6188 61.952C97.9361 62.9413 98.3841 63.688 98.9628 64.192C99.5415 64.6773 100.213 64.92 100.979 64.92ZM116.658 67.776C116.658 68.392 116.481 69.008 116.126 69.624C115.79 70.2587 115.342 70.7813 114.782 71.192C114.241 71.6213 113.662 71.836 113.046 71.836C112.841 71.836 112.617 71.752 112.374 71.584C112.15 71.416 112.038 71.1267 112.038 70.716C112.038 70.2867 112.169 70.0253 112.43 69.932C112.71 69.8573 112.943 69.7733 113.13 69.68C113.373 69.5493 113.559 69.3907 113.69 69.204C113.839 69.036 113.914 68.8213 113.914 68.56C113.914 68.3547 113.811 68.168 113.606 68C113.419 67.8507 113.167 67.776 112.85 67.776C112.738 67.776 112.607 67.7947 112.458 67.832C112.309 67.8507 112.178 67.8973 112.066 67.972C111.879 67.8787 111.711 67.7667 111.562 67.636C111.431 67.4867 111.366 67.2533 111.366 66.936C111.366 66.3573 111.627 65.8627 112.15 65.452C112.691 65.0227 113.317 64.808 114.026 64.808C114.829 64.808 115.463 65.0787 115.93 65.62C116.415 66.1613 116.658 66.88 116.658 67.776ZM127.889 68.28C126.284 68.28 124.921 67.86 123.801 67.02C122.7 66.1613 121.86 64.976 121.281 63.464C120.702 61.9333 120.413 60.1787 120.413 58.2C120.413 56.2027 120.702 54.448 121.281 52.936C121.86 51.424 122.7 50.248 123.801 49.408C124.921 48.5493 126.284 48.12 127.889 48.12C129.494 48.12 130.848 48.5493 131.949 49.408C133.069 50.248 133.918 51.424 134.497 52.936C135.076 54.448 135.365 56.2027 135.365 58.2C135.365 60.1787 135.076 61.9333 134.497 63.464C133.918 64.976 133.069 66.1613 131.949 67.02C130.848 67.86 129.494 68.28 127.889 68.28ZM127.889 64.92C128.673 64.92 129.345 64.6773 129.905 64.192C130.484 63.688 130.932 62.9413 131.249 61.952C131.566 60.944 131.725 59.6933 131.725 58.2C131.725 56.688 131.566 55.4373 131.249 54.448C130.932 53.4587 130.484 52.7213 129.905 52.236C129.345 51.732 128.673 51.48 127.889 51.48C127.124 51.48 126.452 51.732 125.873 52.236C125.294 52.7213 124.846 53.4587 124.529 54.448C124.212 55.4373 124.053 56.688 124.053 58.2C124.053 59.6933 124.212 60.944 124.529 61.952C124.846 62.9413 125.294 63.688 125.873 64.192C126.452 64.6773 127.124 64.92 127.889 64.92ZM146.088 68.28C144.483 68.28 143.12 67.86 142 67.02C140.899 66.1613 140.059 64.976 139.48 63.464C138.902 61.9333 138.612 60.1787 138.612 58.2C138.612 56.2027 138.902 54.448 139.48 52.936C140.059 51.424 140.899 50.248 142 49.408C143.12 48.5493 144.483 48.12 146.088 48.12C147.694 48.12 149.047 48.5493 150.148 49.408C151.268 50.248 152.118 51.424 152.696 52.936C153.275 54.448 153.564 56.2027 153.564 58.2C153.564 60.1787 153.275 61.9333 152.696 63.464C152.118 64.976 151.268 66.1613 150.148 67.02C149.047 67.86 147.694 68.28 146.088 68.28ZM146.088 64.92C146.872 64.92 147.544 64.6773 148.104 64.192C148.683 63.688 149.131 62.9413 149.448 61.952C149.766 60.944 149.924 59.6933 149.924 58.2C149.924 56.688 149.766 55.4373 149.448 54.448C149.131 53.4587 148.683 52.7213 148.104 52.236C147.544 51.732 146.872 51.48 146.088 51.48C145.323 51.48 144.651 51.732 144.072 52.236C143.494 52.7213 143.046 53.4587 142.728 54.448C142.411 55.4373 142.252 56.688 142.252 58.2C142.252 59.6933 142.411 60.944 142.728 61.952C143.046 62.9413 143.494 63.688 144.072 64.192C144.651 64.6773 145.323 64.92 146.088 64.92ZM164.287 68.28C162.682 68.28 161.319 67.86 160.199 67.02C159.098 66.1613 158.258 64.976 157.679 63.464C157.101 61.9333 156.811 60.1787 156.811 58.2C156.811 56.2027 157.101 54.448 157.679 52.936C158.258 51.424 159.098 50.248 160.199 49.408C161.319 48.5493 162.682 48.12 164.287 48.12C165.893 48.12 167.246 48.5493 168.347 49.408C169.467 50.248 170.317 51.424 170.895 52.936C171.474 54.448 171.763 56.2027 171.763 58.2C171.763 60.1787 171.474 61.9333 170.895 63.464C170.317 64.976 169.467 66.1613 168.347 67.02C167.246 67.86 165.893 68.28 164.287 68.28ZM164.287 64.92C165.071 64.92 165.743 64.6773 166.303 64.192C166.882 63.688 167.33 62.9413 167.647 61.952C167.965 60.944 168.123 59.6933 168.123 58.2C168.123 56.688 167.965 55.4373 167.647 54.448C167.33 53.4587 166.882 52.7213 166.303 52.236C165.743 51.732 165.071 51.48 164.287 51.48C163.522 51.48 162.85 51.732 162.271 52.236C161.693 52.7213 161.245 53.4587 160.927 54.448C160.61 55.4373 160.451 56.688 160.451 58.2C160.451 59.6933 160.61 60.944 160.927 61.952C161.245 62.9413 161.693 63.688 162.271 64.192C162.85 64.6773 163.522 64.92 164.287 64.92Z" fill="#202224"/>
<path opacity="0.21" fill-rule="evenodd" clip-rule="evenodd" d="M217.75 42.6484V67.6484C217.75 70.4099 219.989 72.6484 222.75 72.6484H247.75H272.75C275.511 72.6484 277.75 70.4099 277.75 67.6484V42.6484V17.6484C277.75 14.887 275.511 12.6484 272.75 12.6484H247.75H222.75C219.989 12.6484 217.75 14.887 217.75 17.6484V42.6484Z" fill="#F44336"/>
<mask id="mask0_535_39552" style="mask-type:luminance" maskUnits="userSpaceOnUse" x="238" y="32" width="20" height="22">
<path d="M256.5 38L248 33L239.5 38V48L248 53L256.5 48V38Z" fill="#555555" stroke="white" stroke-width="2" stroke-linejoin="round"/>
<path d="M248 42V46M252 40V46M244 44V46" stroke="white" stroke-width="2" stroke-linecap="round" stroke-linejoin="round"/>
</mask>
<g mask="url(#mask0_535_39552)">
<path d="M236 31H260V55H236V31Z" fill="#F44336"/>
</g>
</svg>
