<svg width="61" height="61" viewBox="0 0 61 61" fill="none" xmlns="http://www.w3.org/2000/svg">
<path opacity="0.21" fill-rule="evenodd" clip-rule="evenodd" d="M0.25 30.6484V55.6484C0.25 58.4099 2.48858 60.6484 5.25 60.6484H30.25H55.25C58.0114 60.6484 60.25 58.4099 60.25 55.6484V30.6484V5.64844C60.25 2.88701 58.0114 0.648438 55.25 0.648438H30.25H5.25C2.48858 0.648438 0.25 2.88701 0.25 5.64844V30.6484Z" fill="#FABF00"/>
<path opacity="0.3" d="M22 36.17L22.59 35.58L23.17 35H38V23H22V36.17ZM36 33H28.5L30.5 31H36V33ZM24 30.53L29.88 24.65C30.08 24.45 30.39 24.45 30.59 24.65L32.36 26.42C32.56 26.62 32.56 26.93 32.36 27.13L26.47 33H24V30.53Z" fill="#F8BD00"/>
<path d="M38 21H22C20.9 21 20.01 21.9 20.01 23L20 41L24 37H38C39.1 37 40 36.1 40 35V23C40 21.9 39.1 21 38 21ZM38 35H23.17L22.58 35.59L22 36.17V23H38V35ZM28.5 33H36V31H30.5L28.5 33ZM32.36 27.13C32.56 26.93 32.56 26.62 32.36 26.42L30.59 24.65C30.39 24.45 30.08 24.45 29.88 24.65L24 30.53V33H26.47L32.36 27.13Z" fill="#F8BD00"/>
</svg>
