<svg width="75" height="75" viewBox="0 0 75 75" fill="none" xmlns="http://www.w3.org/2000/svg">
<rect width="75" height="75" rx="3" fill="#008000" fill-opacity="0.3"/>
<path d="M51.3933 22.87L23.9549 32.0183C23.8426 32.0557 23.7443 32.1264 23.673 32.2209C23.6018 32.3155 23.561 32.4295 23.5562 32.5478C23.5513 32.6661 23.5825 32.7831 23.6457 32.8832C23.7089 32.9833 23.801 33.0619 23.9099 33.1083L33.9933 37.43C34.0461 37.4529 34.104 37.4617 34.1612 37.4556C34.2184 37.4494 34.2731 37.4286 34.3199 37.395L44.2049 30.3317C44.5116 30.115 44.8883 30.4917 44.6716 30.7983L37.6083 40.6833C37.5753 40.7301 37.5549 40.7846 37.549 40.8415C37.5432 40.8984 37.5521 40.9559 37.5749 41.0083L41.8949 51.0917C41.9413 51.2006 42.0196 51.2929 42.1197 51.3562C42.2197 51.4195 42.3366 51.4509 42.4549 51.4462C42.5732 51.4415 42.6872 51.4009 42.7819 51.3299C42.8766 51.2588 42.9474 51.1606 42.9849 51.0483L52.1333 23.6083C52.1677 23.5055 52.1728 23.3951 52.1479 23.2895C52.1231 23.1839 52.0693 23.0874 51.9926 23.0107C51.9159 22.934 51.8193 22.8802 51.7138 22.8554C51.6082 22.8305 51.4961 22.8356 51.3933 22.87Z" fill="#008000"/>
</svg>
