<svg width="6" height="9" viewBox="0 0 6 9" fill="none" xmlns="http://www.w3.org/2000/svg">
<path fill-rule="evenodd" clip-rule="evenodd" d="M5.1627 4.08867C5.27206 4.19806 5.33349 4.3464 5.33349 4.50108C5.33349 4.65576 5.27206 4.80411 5.1627 4.9135L1.86278 8.21342C1.80897 8.26913 1.7446 8.31357 1.67343 8.34414C1.60227 8.37471 1.52572 8.3908 1.44827 8.39148C1.37081 8.39215 1.294 8.37739 1.22231 8.34806C1.15062 8.31873 1.08549 8.27542 1.03072 8.22064C0.975947 8.16587 0.932632 8.10074 0.903302 8.02906C0.873971 7.95737 0.859212 7.88055 0.859885 7.8031C0.860558 7.72564 0.87665 7.6491 0.907222 7.57793C0.937794 7.50676 0.982234 7.44239 1.03795 7.38858L3.92545 4.50108L1.03795 1.61358C0.931689 1.50356 0.872892 1.35621 0.874221 1.20326C0.87555 1.05032 0.936899 0.904009 1.04505 0.795854C1.15321 0.6877 1.29952 0.626351 1.45246 0.625022C1.60541 0.623693 1.75276 0.68249 1.86278 0.788749L5.1627 4.08867Z" fill="#647C9B"/>
</svg>
