<svg width="100" height="100" viewBox="0 0 100 100" fill="none" xmlns="http://www.w3.org/2000/svg">
<path opacity="0.3" fill-rule="evenodd" clip-rule="evenodd" d="M50 8.33203V35.4154C50 36.969 50.5788 38.467 51.6234 39.6171C52.6679 40.7672 54.1035 41.487 55.65 41.6362L56.25 41.6654H83.3333V83.332C83.334 85.4344 82.5399 87.4594 81.1104 89.001C79.6808 90.5426 77.7214 91.4869 75.625 91.6445L75 91.6654H25C22.8976 91.666 20.8726 90.872 19.331 89.4425C17.7894 88.0129 16.8451 86.0535 16.6875 83.957L16.6666 83.332V16.6654C16.666 14.563 17.46 12.538 18.8895 10.9964C20.3191 9.45483 22.2785 8.51055 24.375 8.35287L25 8.33203H50Z" fill="#4679BD"/>
<path fill-rule="evenodd" clip-rule="evenodd" d="M58.3333 8.51172C59.6807 8.79776 60.9362 9.41334 61.9874 10.3034L62.4999 10.7742L80.8916 29.1659C81.8666 30.1409 82.5874 31.3451 82.9833 32.6659L83.1499 33.3326H58.3333V8.51172ZM47.0541 46.5534L38.2166 55.3909C37.8187 55.7752 37.5012 56.235 37.2829 56.7434C37.0645 57.2517 36.9495 57.7985 36.9447 58.3517C36.9399 58.905 37.0454 59.4536 37.2549 59.9657C37.4644 60.4778 37.7737 60.943 38.165 61.3342C38.5562 61.7254 39.0214 62.0348 39.5335 62.2443C40.0455 62.4538 40.5942 62.5592 41.1475 62.5544C41.7007 62.5496 42.2474 62.4347 42.7558 62.2163C43.2641 61.9979 43.7239 61.6805 44.1083 61.2826L45.8333 59.5575V70.8326C45.8333 71.9376 46.2723 72.9974 47.0537 73.7788C47.8351 74.5602 48.8949 74.9992 49.9999 74.9992C51.105 74.9992 52.1648 74.5602 52.9462 73.7788C53.7276 72.9974 54.1666 71.9376 54.1666 70.8326V59.5575L55.8916 61.2826C56.276 61.6805 56.7357 61.9979 57.2441 62.2163C57.7524 62.4347 58.2992 62.5496 58.8524 62.5544C59.4057 62.5592 59.9544 62.4538 60.4664 62.2443C60.9785 62.0348 61.4437 61.7254 61.8349 61.3342C62.2261 60.943 62.5355 60.4778 62.745 59.9657C62.9545 59.4536 63.06 58.905 63.0552 58.3517C63.0503 57.7985 62.9354 57.2517 62.717 56.7434C62.4987 56.235 62.1812 55.7752 61.7833 55.3909L52.9499 46.5534C52.563 46.166 52.1034 45.8587 51.5976 45.649C51.0918 45.4393 50.5496 45.3314 50.002 45.3314C49.4545 45.3314 48.9123 45.4393 48.4064 45.649C47.9006 45.8587 47.4411 46.166 47.0541 46.5534Z" fill="#4679BD"/>
</svg>
