<svg width="75" height="75" viewBox="0 0 75 75" fill="none" xmlns="http://www.w3.org/2000/svg">
<rect width="75" height="75" rx="3" fill="#4679BD" fill-opacity="0.3"/>
<path d="M54.1667 32.4375V30.75C54.1667 29.8219 53.4167 29.0625 52.5 29.0625C51.5833 29.0625 50.8333 29.8219 50.8333 30.75V32.4375H49.1667C48.25 32.4375 47.5 33.1969 47.5 34.125C47.5 35.0531 48.25 35.8125 49.1667 35.8125H50.8333V37.5C50.8333 38.4281 51.5833 39.1875 52.5 39.1875C53.4167 39.1875 54.1667 38.4281 54.1667 37.5V35.8125H55.8333C56.75 35.8125 57.5 35.0531 57.5 34.125C57.5 33.1969 56.75 32.4375 55.8333 32.4375H54.1667ZM30.8333 37.5C34.5167 37.5 37.5 34.4794 37.5 30.75C37.5 27.0206 34.5167 24 30.8333 24C27.15 24 24.1667 27.0206 24.1667 30.75C24.1667 34.4794 27.15 37.5 30.8333 37.5ZM30.8333 39.1875C26.3833 39.1875 17.5 41.4487 17.5 45.9375V51H44.1667V45.9375C44.1667 41.4487 35.2833 39.1875 30.8333 39.1875ZM38.35 24.0844C39.8833 25.8731 40.8333 28.2019 40.8333 30.75C40.8333 33.2981 39.8833 35.6269 38.35 37.4156C41.6167 36.9937 44.1667 34.1925 44.1667 30.75C44.1667 27.3075 41.6167 24.5063 38.35 24.0844ZM45.05 40.5881C46.5333 41.9888 47.5 43.7437 47.5 45.9375V51H50.8333V45.9375C50.8333 43.4906 48.1833 41.7019 45.05 40.5881Z" fill="#4679BD"/>
</svg>
