<svg width="36" height="20" viewBox="0 0 36 20" fill="none" xmlns="http://www.w3.org/2000/svg">
<path fill-rule="evenodd" clip-rule="evenodd" d="M7.48201 13.3962C3.59581 13.3962 0 15.3837 0 17.8872C0 20.3907 3.57428 19.974 7.48153 19.974C11.3677 19.974 14.686 20.3896 14.686 17.8872C14.686 16.6576 13.8901 15.5522 12.617 14.7457C11.299 13.9107 9.46949 13.3962 7.48201 13.3962Z" fill="#10CCD6"/>
<path fill-rule="evenodd" clip-rule="evenodd" d="M7.48201 9.82555C10.0323 9.82555 12.0993 7.62547 12.0993 4.91227C12.0993 2.19907 10.0323 0 7.48201 0C4.93173 0 2.86375 2.19907 2.86375 4.91227C2.85513 7.6163 4.90876 9.81639 7.44947 9.82555H7.48201Z" fill="#10CCD6"/>
<path fill-rule="evenodd" clip-rule="evenodd" d="M18.1392 13.3962C14.253 13.3962 10.6572 15.3837 10.6572 17.8872C10.6572 20.3907 14.2315 19.974 18.1388 19.974C22.025 19.974 25.3432 20.3896 25.3432 17.8872C25.3432 16.6576 24.5473 15.5522 23.2742 14.7457C21.9562 13.9107 20.1267 13.3962 18.1392 13.3962Z" fill="#13ABB4"/>
<path fill-rule="evenodd" clip-rule="evenodd" d="M18.1392 9.82555C20.6895 9.82555 22.7565 7.62547 22.7565 4.91227C22.7565 2.19907 20.6895 0 18.1392 0C15.589 0 13.521 2.19907 13.521 4.91227C13.5124 7.6163 15.566 9.81639 18.1067 9.82555H18.1392Z" fill="#13ABB4"/>
<path fill-rule="evenodd" clip-rule="evenodd" d="M28.796 13.3962C24.9098 13.3962 21.314 15.3837 21.314 17.8872C21.314 20.3907 24.8882 19.974 28.7955 19.974C32.6817 19.974 35.9999 20.3896 35.9999 17.8872C35.9999 16.6576 35.2041 15.5522 33.931 14.7457C32.613 13.9107 30.7835 13.3962 28.796 13.3962Z" fill="#078B92"/>
<path fill-rule="evenodd" clip-rule="evenodd" d="M28.796 9.82555C31.3463 9.82555 33.4133 7.62547 33.4133 4.91227C33.4133 2.19907 31.3463 0 28.796 0C26.2457 0 24.1777 2.19907 24.1777 4.91227C24.1691 7.6163 26.2227 9.81639 28.7634 9.82555H28.796Z" fill="#078B92"/>
</svg>
