<svg width="60" height="60" viewBox="0 0 60 60" fill="none" xmlns="http://www.w3.org/2000/svg">
<path opacity="0.21" fill-rule="evenodd" clip-rule="evenodd" d="M0 30V55C0 57.7614 2.23858 60 5 60H30H55C57.7614 60 60 57.7614 60 55V30V5C60 2.23858 57.7614 0 55 0H30H5C2.23858 0 0 2.23858 0 5V30Z" fill="#8280FF"/>
<path opacity="0.587821" fill-rule="evenodd" clip-rule="evenodd" d="M20.6667 23.3333C20.6667 26.2789 23.0546 28.6667 26.0001 28.6667C28.9456 28.6667 31.3334 26.2789 31.3334 23.3333C31.3334 20.3878 28.9456 18 26.0001 18C23.0546 18 20.6667 20.3878 20.6667 23.3333ZM34.0001 28.6667C34.0001 30.8758 35.7909 32.6667 38.0001 32.6667C40.2092 32.6667 42.0001 30.8758 42.0001 28.6667C42.0001 26.4575 40.2092 24.6667 38.0001 24.6667C35.7909 24.6667 34.0001 26.4575 34.0001 28.6667Z" fill="#8280FF"/>
<path fill-rule="evenodd" clip-rule="evenodd" d="M25.9778 31.332C19.6826 31.332 14.5177 34.5674 14.0009 40.931C13.9727 41.2776 14.6356 41.9987 14.97 41.9987H36.9956C37.9972 41.9987 38.0128 41.1927 37.9972 40.932C37.6065 34.3896 32.3616 31.332 25.9778 31.332ZM45.2746 41.9987H42.9656C41.4014 41.9987 40.1573 40.6408 39.8203 39.1133C39.3142 36.8194 40.9815 34.2003 42.932 35.5093C44.6866 36.6868 45.8466 38.5668 45.998 41.1987C46.0092 41.3942 45.998 41.9987 45.2746 41.9987Z" fill="#8280FF"/>
</svg>
