<svg width="61" height="60" viewBox="0 0 61 60" fill="none" xmlns="http://www.w3.org/2000/svg">
<path opacity="0.21" fill-rule="evenodd" clip-rule="evenodd" d="M0.5 30V55C0.5 57.7614 2.73858 60 5.5 60H30.5H55.5C58.2614 60 60.5 57.7614 60.5 55V30V5C60.5 2.23858 58.2614 0 55.5 0H30.5H5.5C2.73858 0 0.5 2.23858 0.5 5V30Z" fill="#E33629"/>
<path fill-rule="evenodd" clip-rule="evenodd" d="M40.6942 29.855L41.3167 29.543V29.54L41.3122 29.5355L41.3032 29.5175L41.2717 29.4575L41.1517 29.2415C41.0052 28.9889 40.8496 28.7417 40.6852 28.5005C40.1364 27.6949 39.5055 26.9484 38.8027 26.273C37.1137 24.653 34.5142 23 30.9442 23C27.3772 23 24.7762 24.6515 23.0872 26.273C22.3844 26.9484 21.7535 27.6949 21.2047 28.5005C20.982 28.8291 20.7757 29.1685 20.5867 29.5175L20.5777 29.5355L20.5747 29.54V29.5415C20.5747 29.5415 20.5732 29.543 21.1957 29.855L20.5732 29.5415C20.525 29.6387 20.5 29.7458 20.5 29.8542C20.5 29.9627 20.525 30.0698 20.5732 30.167L20.5717 30.17L20.5762 30.1745L20.5852 30.1925C20.6319 30.2862 20.682 30.3783 20.7352 30.4685C21.3811 31.5596 22.1712 32.5586 23.0842 33.4385C24.7747 35.0585 27.3742 36.7085 30.9442 36.7085C34.5127 36.7085 37.1137 35.0585 38.8042 33.437C39.5057 32.7608 40.136 32.0144 40.6852 31.2095C40.8955 30.8998 41.0912 30.5805 41.2717 30.2525L41.3032 30.1925L41.3122 30.1745L41.3152 30.17V30.1685C41.3152 30.1685 41.3167 30.167 40.6942 29.855ZM40.6942 29.855L41.3167 30.1685C41.3648 30.0713 41.3898 29.9642 41.3898 29.8557C41.3898 29.7473 41.3648 29.6402 41.3167 29.543L40.6942 29.855ZM30.8542 27.551C30.2431 27.551 29.6571 27.7937 29.225 28.2258C28.7929 28.6579 28.5502 29.2439 28.5502 29.855C28.5502 30.4661 28.7929 31.0521 29.225 31.4842C29.6571 31.9163 30.2431 32.159 30.8542 32.159C31.4652 32.159 32.0513 31.9163 32.4833 31.4842C32.9154 31.0521 33.1582 30.4661 33.1582 29.855C33.1582 29.2439 32.9154 28.6579 32.4833 28.2258C32.0513 27.7937 31.4652 27.551 30.8542 27.551ZM27.1612 29.855C27.1612 28.8748 27.5506 27.9347 28.2437 27.2415C28.9368 26.5484 29.8769 26.159 30.8572 26.159C31.8374 26.159 32.7775 26.5484 33.4706 27.2415C34.1638 27.9347 34.5532 28.8748 34.5532 29.855C34.5532 30.8352 34.1638 31.7753 33.4706 32.4685C32.7775 33.1616 31.8374 33.551 30.8572 33.551C29.8769 33.551 28.9368 33.1616 28.2437 32.4685C27.5506 31.7753 27.1612 30.8352 27.1612 29.855Z" fill="#F44336"/>
</svg>
