<svg width="60" height="60" viewBox="0 0 60 60" fill="none" xmlns="http://www.w3.org/2000/svg">
<path fill-rule="evenodd" clip-rule="evenodd" d="M19.482 33.3962C15.5958 33.3962 12 35.3837 12 37.8872C12 40.3907 15.5743 39.974 19.4815 39.974C23.3677 39.974 26.686 40.3896 26.686 37.8872C26.686 36.6576 25.8901 35.5522 24.617 34.7457C23.299 33.9107 21.4695 33.3962 19.482 33.3962Z" fill="#10CCD6"/>
<path fill-rule="evenodd" clip-rule="evenodd" d="M19.482 29.8256C22.0323 29.8256 24.0993 27.6255 24.0993 24.9123C24.0993 22.1991 22.0323 20 19.482 20C16.9317 20 14.8637 22.1991 14.8637 24.9123C14.8551 27.6163 16.9088 29.8164 19.4495 29.8256H19.482Z" fill="#10CCD6"/>
<path fill-rule="evenodd" clip-rule="evenodd" d="M30.1392 33.3962C26.253 33.3962 22.6572 35.3837 22.6572 37.8872C22.6572 40.3907 26.2315 39.974 30.1388 39.974C34.025 39.974 37.3432 40.3896 37.3432 37.8872C37.3432 36.6576 36.5473 35.5522 35.2742 34.7457C33.9562 33.9107 32.1267 33.3962 30.1392 33.3962Z" fill="#13ABB4"/>
<path fill-rule="evenodd" clip-rule="evenodd" d="M30.1392 29.8256C32.6895 29.8256 34.7565 27.6255 34.7565 24.9123C34.7565 22.1991 32.6895 20 30.1392 20C27.589 20 25.521 22.1991 25.521 24.9123C25.5124 27.6163 27.566 29.8164 30.1067 29.8256H30.1392Z" fill="#13ABB4"/>
<path fill-rule="evenodd" clip-rule="evenodd" d="M40.796 33.3962C36.9098 33.3962 33.314 35.3837 33.314 37.8872C33.314 40.3907 36.8882 39.974 40.7955 39.974C44.6817 39.974 47.9999 40.3896 47.9999 37.8872C47.9999 36.6576 47.2041 35.5522 45.931 34.7457C44.613 33.9107 42.7835 33.3962 40.796 33.3962Z" fill="#078B92"/>
<path fill-rule="evenodd" clip-rule="evenodd" d="M40.796 29.8256C43.3463 29.8256 45.4133 27.6255 45.4133 24.9123C45.4133 22.1991 43.3463 20 40.796 20C38.2457 20 36.1777 22.1991 36.1777 24.9123C36.1691 27.6163 38.2227 29.8164 40.7634 29.8256H40.796Z" fill="#078B92"/>
<path opacity="0.21" fill-rule="evenodd" clip-rule="evenodd" d="M0 30V55C0 57.7614 2.23858 60 5 60H30H55C57.7614 60 60 57.7614 60 55V30V5C60 2.23858 57.7614 0 55 0H30H5C2.23858 0 0 2.23858 0 5V30Z" fill="#0C8B96"/>
</svg>
