<svg width="25" height="24" viewBox="0 0 25 24" fill="none" xmlns="http://www.w3.org/2000/svg">
<path d="M5.3921 9.61863C5.3921 9.21663 5.7151 8.89062 6.1141 8.89062H9.9701C10.3701 8.89062 10.6931 9.21663 10.6931 9.61863C10.6935 9.71397 10.6751 9.80845 10.639 9.89668C10.6029 9.98492 10.5497 10.0652 10.4826 10.1329C10.4154 10.2006 10.3356 10.2544 10.2477 10.2912C10.1598 10.3281 10.0654 10.3472 9.9701 10.3476H6.1141C5.92172 10.3466 5.73763 10.2692 5.60226 10.1325C5.46689 9.99583 5.3913 9.811 5.3921 9.61863Z" fill="#008000"/>
<path fill-rule="evenodd" clip-rule="evenodd" d="M21.688 10.0042C21.6253 10.0008 21.5587 9.9995 21.488 10.0002H18.715C16.444 10.0002 14.5 11.7362 14.5 14.0002C14.5 16.2642 16.444 18.0002 18.715 18.0002H21.488C21.5587 18.0008 21.6253 17.9995 21.688 17.9962C22.611 17.9402 23.427 17.2392 23.496 16.2592C23.5 16.1952 23.5 16.1262 23.5 16.0622V11.9382C23.5 11.8742 23.5 11.8052 23.496 11.7412C23.427 10.7612 22.611 10.0612 21.688 10.0042ZM18.471 15.0672C19.055 15.0672 19.529 14.5892 19.529 14.0002C19.529 13.4102 19.055 12.9332 18.471 12.9332C17.887 12.9332 17.411 13.4112 17.411 14.0002C17.411 14.5902 17.886 15.0672 18.471 15.0672Z" fill="#008000"/>
<path opacity="0.5" d="M21.64 10.002C21.64 8.821 21.596 7.554 20.842 6.647C20.7681 6.55834 20.6903 6.47293 20.609 6.391C19.86 5.643 18.911 5.311 17.739 5.153C16.599 5 15.144 5 13.306 5H11.194C9.356 5 7.9 5 6.76 5.153C5.588 5.311 4.639 5.643 3.89 6.391C3.142 7.14 2.81 8.089 2.652 9.261C2.5 10.401 2.5 11.856 2.5 13.694V13.806C2.5 15.644 2.5 17.1 2.653 18.239C2.811 19.411 3.143 20.36 3.891 21.109C4.64 21.857 5.589 22.189 6.761 22.347C7.901 22.5 9.356 22.5 11.194 22.5H13.306C15.144 22.5 16.6 22.5 17.739 22.347C18.911 22.189 19.86 21.857 20.609 21.109C20.8123 20.9037 20.9877 20.6837 21.135 20.449C21.585 19.729 21.639 18.847 21.639 17.999L21.489 18H18.715C16.444 18 14.5 16.264 14.5 14C14.5 11.736 16.444 10 18.715 10H21.488C21.5407 10 21.592 10.0007 21.64 10.002Z" fill="#008000"/>
<path d="M10.6011 2.57168L8.50009 3.99168L6.76709 5.15168C7.90509 4.99968 9.35909 4.99968 11.1941 4.99968H13.3061C15.1441 4.99968 16.6001 4.99968 17.7391 5.15268C17.9684 5.18268 18.1891 5.22068 18.4011 5.26668L16.5001 3.99968L14.3871 2.57168C13.8261 2.19887 13.1676 2 12.4941 2C11.8206 2 11.162 2.19887 10.6011 2.57168Z" fill="#008000"/>
</svg>
