<svg width="61" height="60" viewBox="0 0 61 60" fill="none" xmlns="http://www.w3.org/2000/svg">
<path opacity="0.21" fill-rule="evenodd" clip-rule="evenodd" d="M0.5 30V55C0.5 57.7614 2.73858 60 5.5 60H30.5H55.5C58.2614 60 60.5 57.7614 60.5 55V30V5C60.5 2.23858 58.2614 0 55.5 0H30.5H5.5C2.73858 0 0.5 2.23858 0.5 5V30Z" fill="#008000"/>
<path d="M23.3921 27.6147C23.3921 27.2127 23.7151 26.8867 24.1141 26.8867H27.9701C28.3701 26.8867 28.6931 27.2127 28.6931 27.6147C28.6935 27.7101 28.6751 27.8045 28.639 27.8928C28.6029 27.981 28.5497 28.0613 28.4826 28.129C28.4154 28.1967 28.3356 28.2505 28.2477 28.2873C28.1598 28.3242 28.0654 28.3433 27.9701 28.3437H24.1141C23.9217 28.3427 23.7376 28.2653 23.6023 28.1286C23.4669 27.9919 23.3913 27.8071 23.3921 27.6147Z" fill="#008000"/>
<path fill-rule="evenodd" clip-rule="evenodd" d="M39.688 28.0042C39.6253 28.0008 39.5587 27.9995 39.488 28.0002H36.715C34.444 28.0002 32.5 29.7362 32.5 32.0002C32.5 34.2642 34.444 36.0002 36.715 36.0002H39.488C39.5587 36.0008 39.6253 35.9995 39.688 35.9962C40.611 35.9402 41.427 35.2392 41.496 34.2592C41.5 34.1952 41.5 34.1262 41.5 34.0622V29.9382C41.5 29.8742 41.5 29.8052 41.496 29.7412C41.427 28.7612 40.611 28.0612 39.688 28.0042ZM36.471 33.0672C37.055 33.0672 37.529 32.5892 37.529 32.0002C37.529 31.4102 37.055 30.9332 36.471 30.9332C35.887 30.9332 35.411 31.4112 35.411 32.0002C35.411 32.5902 35.886 33.0672 36.471 33.0672Z" fill="#008000"/>
<path opacity="0.5" d="M39.64 28.002C39.64 26.821 39.596 25.554 38.842 24.647C38.7681 24.5583 38.6903 24.4729 38.609 24.391C37.86 23.643 36.911 23.311 35.739 23.153C34.599 23 33.144 23 31.306 23H29.194C27.356 23 25.9 23 24.76 23.153C23.588 23.311 22.639 23.643 21.89 24.391C21.142 25.14 20.81 26.089 20.652 27.261C20.5 28.401 20.5 29.856 20.5 31.694V31.806C20.5 33.644 20.5 35.1 20.653 36.239C20.811 37.411 21.143 38.36 21.891 39.109C22.64 39.857 23.589 40.189 24.761 40.347C25.901 40.5 27.356 40.5 29.194 40.5H31.306C33.144 40.5 34.6 40.5 35.739 40.347C36.911 40.189 37.86 39.857 38.609 39.109C38.8123 38.9037 38.9877 38.6837 39.135 38.449C39.585 37.729 39.639 36.847 39.639 35.999L39.489 36H36.715C34.444 36 32.5 34.264 32.5 32C32.5 29.736 34.444 28 36.715 28H39.488C39.5407 28 39.592 28.0007 39.64 28.002Z" fill="#008000"/>
<path d="M28.6011 20.5717L26.5001 21.9917L24.7671 23.1517C25.9051 22.9997 27.3591 22.9997 29.1941 22.9997H31.3061C33.1441 22.9997 34.6001 22.9997 35.7391 23.1527C35.9684 23.1827 36.1891 23.2207 36.4011 23.2667L34.5001 21.9997L32.3871 20.5717C31.8261 20.1989 31.1676 20 30.4941 20C29.8206 20 29.162 20.1989 28.6011 20.5717Z" fill="#008000"/>
</svg>
