<svg width="20" height="22" viewBox="0 0 20 22" fill="none" xmlns="http://www.w3.org/2000/svg">
<path d="M10 0C15.523 0 20 4.477 20 10C20 15.523 15.523 20 10 20C8.29801 20.0024 6.62375 19.5686 5.13704 18.74L4.83204 18.562L1.80004 19.454C1.63504 19.5026 1.46036 19.5083 1.29255 19.4705C1.12475 19.4327 0.969379 19.3526 0.841176 19.238C0.712972 19.1233 0.616182 18.9778 0.559982 18.8152C0.503781 18.6526 0.490032 18.4784 0.520039 18.309L0.546039 18.2L1.43804 15.168C0.495092 13.6093 -0.00228192 11.8218 3.86004e-05 10C3.86004e-05 4.477 4.47704 0 10 0ZM10 2C8.56767 1.99974 7.1615 2.38406 5.92837 3.11281C4.69524 3.84157 3.68039 4.88804 2.9898 6.14294C2.29921 7.39784 1.9582 8.81514 2.0024 10.2468C2.04659 11.6785 2.47436 13.0721 3.24104 14.282C3.43904 14.594 3.52404 14.978 3.45704 15.359L3.41804 15.522L2.97704 17.023L4.47804 16.582C4.91104 16.454 5.36104 16.532 5.71804 16.759C6.76637 17.4228 7.95473 17.8336 9.18918 17.959C10.4236 18.0844 11.6703 17.921 12.8307 17.4816C13.9911 17.0422 15.0334 16.3389 15.8752 15.4273C16.717 14.5157 17.3352 13.4208 17.6809 12.2291C18.0267 11.0374 18.0905 9.78168 17.8673 8.56111C17.6441 7.34053 17.1401 6.1886 16.395 5.19638C15.65 4.20415 14.6843 3.39883 13.5745 2.84408C12.4646 2.28933 11.2408 2.00036 10 2ZM7.10204 5.184C7.21286 5.13654 7.33406 5.11851 7.45389 5.13165C7.57373 5.14479 7.68814 5.18866 7.78604 5.259C8.29004 5.627 8.69004 6.121 9.03404 6.603L9.36104 7.077L9.51404 7.302C9.60264 7.43096 9.64617 7.58557 9.63785 7.74182C9.62953 7.89806 9.56984 8.04718 9.46804 8.166L9.39304 8.242L8.46904 8.928C8.42507 8.9606 8.39417 9.00781 8.38189 9.06115C8.36961 9.11449 8.37675 9.17046 8.40204 9.219C8.61204 9.599 8.98304 10.166 9.40904 10.592C9.83604 11.018 10.429 11.414 10.835 11.647C10.923 11.697 11.029 11.681 11.101 11.616L11.139 11.571L11.74 10.656C11.8502 10.5088 12.0132 10.4101 12.1947 10.3806C12.3761 10.3512 12.562 10.3932 12.713 10.498L13.256 10.877C13.796 11.262 14.315 11.676 14.726 12.201C14.8021 12.2997 14.8504 12.4168 14.8661 12.5404C14.8817 12.664 14.8641 12.7895 14.815 12.904C14.419 13.828 13.416 14.615 12.374 14.577L12.215 14.567L12.024 14.549L11.916 14.535L11.678 14.495C10.754 14.321 9.27304 13.797 7.73804 12.263C6.20404 10.728 5.68004 9.247 5.50604 8.323L5.46604 8.085L5.44104 7.877L5.42804 7.702L5.42404 7.627C5.38604 6.583 6.17704 5.58 7.10204 5.184Z" fill="black"/>
</svg>
